<?xml version="1.0" encoding="utf-8"?>
<!-- Generator: Adobe Illustrator 24.1.0, SVG Export Plug-In . SVG Version: 6.00 Build 0)  -->
<svg version="1.1" id="Calque_1" xmlns="http://www.w3.org/2000/svg" xmlns:xlink="http://www.w3.org/1999/xlink" x="0px" y="0px"
	 viewBox="0 0 100 100" style="enable-background:new 0 0 100 100;" xml:space="preserve">
<style type="text/css">
	.st0{fill:url(#SVGID_2_);}
	.st1{fill:#008AB7;}
	.st2{fill:#0056A4;}
	.st3{clip-path:url(#SVGID_4_);}
	.st4{fill:none;}
	.st5{fill:#EA5B0C;}
	.st6{fill:none;stroke:#FFFFFF;stroke-linecap:round;stroke-dasharray:0.1,5.5;}
	.st7{fill:none;stroke:#FFFFFF;stroke-width:2;stroke-linecap:round;stroke-dasharray:0.1,5.5;}
	.st8{fill:none;stroke:#FFFFFF;stroke-width:3;stroke-linecap:round;stroke-dasharray:0.1,5.5;}
	.st9{fill:none;stroke:#FFFFFF;stroke-width:5;stroke-linecap:round;stroke-dasharray:0.1,5.5;}
	.st10{fill:none;stroke:#FFFFFF;stroke-width:4;stroke-linecap:round;stroke-dasharray:0.1,5.5;}
</style>
<g>
	<g id="Calque_1_2_">
		
			<linearGradient id="SVGID_2_" gradientUnits="userSpaceOnUse" x1="-1495.0275" y1="5152.4985" x2="-1402.9784" y2="5152.4985" gradientTransform="matrix(1 0 0 -1 1499 5202.5)">
			<stop  offset="0" style="stop-color:#FFFFFF"/>
			<stop  offset="1" style="stop-color:#D3D800"/>
		</linearGradient>
		<circle class="st0" cx="50" cy="50" r="46"/>
		<g>
			<path class="st1" d="M14.7,15c-8.1,8.1-13,18.3-14.2,29.6l0.3,0.1c1.2-11,7-20.9,14.9-28.7C34.5-2.8,65.1-2.7,83.9,16.1
				s18.8,49.3,0,68.1C76.1,92,66.2,96.8,55.2,98l0.2,1.5c11.3-1.3,21.5-6.2,29.6-14.2c9.4-9.4,14.5-21.8,14.5-35.1S94.3,24.4,85,15
				S63.1,0.5,49.8,0.5C36.6,0.5,24.1,5.7,14.7,15z"/>
		</g>
		<g>
			<g>
				<path id="SVGID_1_" class="st2" d="M26.1,78.4c9.5-4.9,6.2-53.4,16.5-63.6c9.2-9.2,25.9-6.2,35.8,3.7c9.4,9.4,14,26.7,5.3,35.4
					c-7.5,7.5-64.2,3.3-68.3,13.5C20.8,68.2,25,71.3,26.1,78.4z"/>
			</g>
		</g>
		<g>
			<path d="M14.9,66.8l0.2,0.1c1.1-2.7,7.3-4.1,17.2-5.4L32,60.3C21.4,61.7,16.1,63.7,14.9,66.8z"/>
		</g>
	</g>
	<g id="modèles_1_">
		<g>
			<g>
				<defs>
					<path id="SVGID_3_" d="M26.1,78.4c9.5-4.9,6.2-53.4,16.5-63.6c9.2-9.2,25.9-6.2,35.8,3.7c9.4,9.4,14,26.7,5.3,35.4
						c-7.5,7.5-64.2,3.3-68.3,13.5C20.8,68.2,25,71.3,26.1,78.4z"/>
				</defs>
				<clipPath id="SVGID_4_">
					<use xlink:href="#SVGID_3_"  style="overflow:visible;"/>
				</clipPath>
				<g class="st3">
					<g>
						<g>
							<path class="st4" d="M-46.5,74.6C-7.6,53.2-0.8,39.4,21.4,11.6"/>
							<g>
								<path class="st5" d="M17.5,8.7C17.7,8.6,17,8.1,16.9,8C16.9,8.3,17.7,8.8,17.5,8.7z"/>
								<polygon class="st5" points="17.6,11.7 17.4,11.4 17.8,12.2 								"/>
								<path class="st5" d="M16.3,13.3c1.2,0.7,0.3-0.8,0.9-0.7l0.3,0.2l-0.8-0.9C16.5,12.4,16.8,13.3,16.3,13.3z"/>
								<path class="st5" d="M13.1,12.3c0.5,0.3,0.2,0.5,0.3-0.1l-0.1-0.1C13.3,12.2,13.2,12.3,13.1,12.3z"/>
								<path class="st5" d="M13.3,12.2C13.4,12,12.8,12,13.3,12.2L13.3,12.2z"/>
								<path class="st5" d="M12.9,13.2l-0.2-0.5c-0.3-0.2-0.5,0-0.6-0.2C12,12.8,12.3,13,12.9,13.2z"/>
								<path class="st5" d="M13.5,14.1l-0.1-0.2C13.3,13.7,13.3,13.7,13.5,14.1z"/>
								<path class="st5" d="M13.3,13.3l0.1,0.5c0.2,0.1,0.6,0.4,0-0.2C13.7,13.9,13.5,13.6,13.3,13.3z"/>
								<path class="st5" d="M13.6,13.3c0.3,0.1,0.6,0,0.8,0.6C14.6,13.2,13.8,12.7,13.6,13.3z"/>
								<path class="st5" d="M17.3,14.3l0.5,0.1L17.6,14C17.7,14.2,17,14.1,17.3,14.3z"/>
								<path class="st5" d="M11.2,14.2c0.2,0.2,0.7,0.4,1,0.6L12,14.4C11.8,14.4,11.5,14.5,11.2,14.2z"/>
								<path class="st5" d="M12.2,14.8l0.2,0.6C12.6,15.2,12.4,15,12.2,14.8z"/>
								<polygon class="st5" points="14.7,15.1 14.2,14 14.7,15.2 								"/>
								<polygon class="st5" points="10.3,15.2 9.9,14.6 10.5,15.5 								"/>
								<path class="st5" d="M9.9,15.9c-0.4-0.5-0.9-0.5-1.1-0.8c-0.1,0.2,0.2,0.7,0.5,1.1C9.2,15.9,9.4,15.8,9.9,15.9z"/>
								<path class="st5" d="M9.7,16.8c-0.1-0.2-0.2-0.4-0.3-0.6C9.4,16.4,9.5,16.6,9.7,16.8z"/>
								<path class="st5" d="M11.9,15.8c-0.2-0.1-0.6-0.4-0.8-0.3L11.9,15.8L11.9,15.8z"/>
								<path class="st5" d="M11.9,15.9L11.9,15.9L11.6,16C11.6,16,11.7,16,11.9,15.9z"/>
								<path class="st5" d="M11.9,15.7L11.9,15.7C12,15.8,12,15.8,11.9,15.7z"/>
								<path class="st5" d="M13.6,15.3c0.3,0.4,0.4,1.1,1.2,1.2C14.5,16,14,15.9,13.6,15.3z"/>
								<path class="st5" d="M12.9,16.3l0.4-0.2c-0.2-0.1-0.5-0.3-0.6-0.5L12.9,16.3z"/>
								<polygon class="st5" points="13,16.6 12.9,16.3 12.7,16.3 								"/>
								<path class="st5" d="M10.7,16.9c0.2,0.3,0.1,0.5,0.1,0.7c0.3-0.1,0.5-0.2,0.6-0.3C11.1,17,10.8,16.7,10.7,16.9z"/>
								<path class="st5" d="M11.3,16.4L11.3,16.4C11.4,16.5,11.4,16.5,11.3,16.4z"/>
								<polygon class="st5" points="9.6,19 9.7,19.1 9.6,19 								"/>
								<path class="st5" d="M11.4,17.3c0.2,0,0.1-0.2,0-0.4c0,0.1,0,0.3-0.1,0.4C11.4,17.3,11.4,17.4,11.4,17.3z"/>
								<path class="st5" d="M9.7,17.5l0.5,0.1C9.9,17.5,9.5,17.3,9.7,17.5z"/>
								<path class="st5" d="M11.1,16.4L11.1,16.4C10.9,16.3,11,16.3,11.1,16.4z"/>
								<path class="st5" d="M11.1,16.4c0,0.1,0.2,0.3,0.3,0.5l-0.1-0.4L11.1,16.4z"/>
								<path class="st5" d="M13.6,22.8c-0.6-0.5-0.9-1.3-0.1-1c-0.3-0.6-2.5-2.1-3.8-2.7c0.3,0.2,0.5,0.4,0.7,1
									c0.4,0.2,1.3,0,1.7,0.7c0,0.6-0.5,0.1-0.9,0c0.9,0.5,0.8,1.3,2,2.2L13,22.3C13.2,22.4,13.3,22.8,13.6,22.8z"/>
								<path class="st5" d="M10.2,18.6l0-0.2c-0.2,0-0.5-0.1-1.2-0.3c0.2,0.4,0.4,0.6,0.6,0.8l0.5-0.5L10.2,18.6z"/>
								<path class="st5" d="M10.6,17.9c0.6,0.6,0.7,1.1,1.6,1.5c0.2-0.4-0.4-0.7-0.5-1.1C11.4,19,11.4,17.9,10.6,17.9
									c0-0.1,0.1-0.3,0.1-0.4l-0.5,0l0.1,0l0,0l0,0c0.1,0,0.2,0.1,0.1,0.1l0,0L10.6,17.9c-0.3,0-0.2-0.1-0.2-0.2l-0.1-0.1l0,0
									l0,0.8C10.4,18.4,10.5,18.2,10.6,17.9z"/>
								<path class="st5" d="M16.1,17.9l-0.2-0.1C16,17.9,16,18,16.1,17.9z"/>
								<path class="st5" d="M15.5,17.8c-0.1-0.1-0.3-0.4-0.1-0.4c0.3,0.1,0.3,0.3,0.6,0.4c-0.1-0.2-0.3-0.6-0.8-0.7l0.1,0.1
									c-0.4,0-1.5-0.4-1.5-0.5C14.3,17.2,14.8,17.5,15.5,17.8z"/>
								<path class="st5" d="M13,18l0,0.7l0.8,0.2l-0.4-0.3C13.7,18.5,13.3,18.3,13,18z"/>
								<polygon class="st5" points="9.2,18.8 8.5,18.2 9.3,19.2 								"/>
								<polygon class="st5" points="8.8,19.4 8.2,18.9 8.5,19.4 								"/>
								<path class="st5" d="M-11.2,56.6l0,0.3L-11.2,56.6z"/>
								<path class="st5" d="M-10.2,55.8l-0.2-0.3C-10.4,55.7-10.3,55.9-10.2,55.8z"/>
								<path class="st5" d="M-2.1,33.3C-2.8,33-3.8,32.4-3.1,33l0.7,0.5C-2.4,33.3-2.3,33.2-2.1,33.3z"/>
								<polygon class="st5" points="-6.2,45.7 -6,45.8 -6.5,45.1 								"/>
								<path class="st5" d="M-3.8,48.3l-0.6-0.2L-3.8,48.3z"/>
								<path class="st5" d="M-15.8,61.6l0.4,0.8C-15.2,62.2-15.6,61.9-15.8,61.6z"/>
								<path class="st5" d="M4.5,25.4c-0.4,0-0.6,0-0.7,0.1C4.4,25.6,5.1,25.9,4.5,25.4z"/>
								<path class="st5" d="M-16.9,49.3c0,0.2,0.1,0.3,0.2,0.5C-16.7,49.6-16.7,49.5-16.9,49.3z"/>
								<path class="st5" d="M3.5,26l0.2,0c0-0.2,0-0.4,0.1-0.5C3.4,25.4,3.1,25.5,3.5,26z"/>
								<path class="st5" d="M-36.3,74.5L-36.3,74.5C-36.4,74.5-36.3,74.5-36.3,74.5z"/>
								<path class="st5" d="M-46.6,70.3l0.2-0.2C-46.5,70-46.6,70.1-46.6,70.3z"/>
								<path class="st5" d="M6.8,21.5C6.8,21.3,6.7,21.4,6.8,21.5L6.8,21.5z"/>
								<path class="st5" d="M9.9,23c0.1,0.1,0.1,0.2,0.3,0.3C10.1,23.2,10,23.1,9.9,23z"/>
								<path class="st5" d="M6.8,30.5L6.8,30.5C6.9,30.6,6.9,30.6,6.8,30.5z"/>
								<path class="st5" d="M7.2,21.5l-0.3,0C7,21.5,7.1,21.5,7.2,21.5z"/>
								<path class="st5" d="M6.9,21.3L7,21.3C6.9,21.2,6.8,21.1,6.9,21.3z"/>
								<polygon class="st5" points="6.7,21.7 6.9,21.5 6.8,21.5 								"/>
								<path class="st5" d="M-26.7,65.7L-26.7,65.7C-26.7,66-26.7,65.9-26.7,65.7z"/>
								<polygon class="st5" points="2.2,42.2 2.2,42.1 2.2,42.1 								"/>
								<path class="st5" d="M2.3,43c-0.7-0.9-0.5-0.9-0.2-0.9l-2-1.5L2.3,43z"/>
								<path class="st5" d="M-13.4,58c-1.1-0.5-0.6,0.9-0.4,1.6c-0.4-0.2-1.2-1.7-1.3-1c-0.3,0.9,1.4,1.4,1.2,2l-1.2-0.9
									c0.2,1.2-0.8,0.8-1.3,0.9c0,0.2,0,0.3,0.1,0.4c-0.8-0.1-0.1,1.8-0.7,1.7c-0.1-0.3-0.7-0.6-1-0.8l-0.1,1.2
									c0-0.5-0.5-1.1-0.9-1.8c-0.1,0.2,0,0.6,0,0.8c-0.1-0.3-0.2-0.6-0.5-0.8l0.2,1.6c0.1,0.1,0.2,0.1,0.3,0
									c-0.2,0.1-0.2,0.8-0.8,0.4l-0.4-0.8c0.7,0.6,0.4-0.1,0.1-0.7c-0.4,0.4-0.2-0.1-0.8-0.4c-0.3,0.3,0.2,1.2,0.7,1.7
									c-0.5,0-0.8-0.1-0.7,0.8l-0.6-0.9l-0.1,0.5l-0.5-1.3c-1.1-0.2,1,1.6-0.1,1.6l-0.6-0.8c-0.1,0.5,0.8,1.9-0.1,1.1
									c0.1,0.7,1.2,0.8,0.7,1.4c-0.4-0.3-0.8-0.5-1.1-0.5c0.1,0.5,0.8,0.8,0.9,0.6c-0.7,1-2.5-2.3-2.6-0.7
									c0.7,0.4,0.8,1.7,1.5,1.2c0,0.7-1.4-0.7-1.2,0.4l-0.5-1.2c-0.1,0.1,0,0.5,0,0.7l-0.5-0.8c0.5,1.7-1.2-0.1-0.3,1.9
									c-0.8-1.5-0.3,0.3-0.8-0.2c-0.3-1.2,1-0.6,0.2-2c-0.4-0.3-0.1,0.4-0.6,0.2c0-0.3-0.1-0.7-0.2-1c-1-0.4-0.3,1.3-0.4,1.9
									l0.4-0.7c0.8,1.3-0.1,0.4,0.4,1.5c-0.8-0.5-0.3,0.7-0.8,0.4c0.1,0,0-0.2,0.1-0.2c-0.6,0.4-2.2-1.6-2.5-1.5
									c-0.4,0-0.3,1,0.2,1.5c0,0.5,0.6-0.9,1.3,1c-1.7-1.8-0.3,1.2-1.9,0.4c-0.1-0.9-0.9-1-1-1.7c-0.3,0.4-0.1,0.7,0.1,1.4
									l-0.5-0.6c0.4,1.7,0.7,1.3,0.4,2.5c-0.1-0.6-0.9-0.7-1-1.3c-0.2,0.1-0.3,0.4-0.2,0.9l0-0.1c-0.6,0.8-1.1-0.4-1.4,0.7
									l0.3,0.3c-0.3,1.6-1.8,1.6-2.5,2.7l0.5,0.1c-0.2-0.1-0.3,1-0.9,0.6c0-0.1,0-0.3,0.1-0.3c-0.3-0.4-0.8-1-1-1l0.3,0.7
									l-0.4-0.5c-0.3,0.2,0.7,0.9,0.3,1.1c-1.3-1.8-1.6,0.6-2.9-0.9c0.6,1.5,0.8-0.2,1.2,1.2c-0.2-0.1-0.4-0.4-0.7-0.4l0.6,0.8
									c-1.3,0.1-2.1-0.3-3,0.4l-0.1-0.2c-0.5-0.1-0.6,0.1-0.4,0.9c-0.3-0.3-0.2-0.7-0.5-1c0.6,2.5-2-0.9-1.6,0.8
									c-0.9-1.7-2.5-2.9-2.9-4.4l-0.1,0.3c-0.5-1.2,0.7-0.4,0.2-1.7l1.4,0.7c-0.3-0.4-0.5-1.1-0.7-1.2c0.2-0.1,0.3-0.3-0.3-0.7
									c3.4,1.8,3.6-1.9,6.2-1.5c0.1-0.2-0.2-0.5-0.4-0.7c0.9,0.9,0-0.7,0.1-1l1.4,1.2c-0.1-0.6-0.5-0.9-0.7-1.3
									c0.7-0.8,2.4,0.1,2.6-1.2c0.6,0.4,0.7,1.2,1.1,1.2c-1.4-1.3,0.4-1.3-0.5-2.2c1.3,1.5,1.3-0.3,2.6,2.1
									c0.4-0.1-0.3-1.1-0.5-1.3c0.5-0.2,0.8-0.4,0.7-1.3c0.6,0.4,1.5-1.8,2.9-0.3c-1-0.9-0.4-0.6-0.4-1.2l-0.8-0.8l0.6-0.2
									c0-0.2,0.1-0.1,0.2-0.1c0.1,0,0.3,0.6,0.7,0.7c0.4-0.2,0.1-0.7-0.1-1.3l-0.1-0.1l0.2-0.3c0.2-0.1,0,1.4,0.9,1.5
									c-0.2-0.3-0.7-1.8-0.1-1.2c-0.3,0.1,0.2,0.8,0.5,1l0.5-0.2l-1-1.1c1.2-0.7,3-0.8,4.2-1.7c0.7,1.1,0.9-0.6,1.9,1l-0.2-0.1
									c-0.2,0.4,1,1.1,1.1,0.8c-0.6-0.3-0.6-1.9-1.4-1.6l0-1.1c-1.9-3.1,1.5-0.7,1.5-2.2c0,0.2,0.1,0.3,0.2,0.4
									c-0.1-1.4,2-0.3,1.8-0.9l0.7,0.7c-0.4-1.6-0.4-1.8,0.6-1.8c0.1,0.1,0.2,0.4,0.4,0.5c-0.3-0.7-0.6-1.4-0.1-1.6l0.2,0.3
									l0.6-0.7c2,2.4,0-2.4,2.3,0c-0.4-0.8-0.1-1.4-0.2-1.9l0.3,0.3c-0.8-1.5,1.1-0.3,1.2-0.7c-0.1-0.5-0.5-0.8-0.9-1.1
									c1.2,0.6,0-2,0.5-1.7c0.3-0.1,0.9,0.8,1.4,1.2c0.2-0.6-1.9-2-0.6-1.6c0,0.2,0,0.3,0.2,0.4c0.4,0,3.1,2.3,2.8,1.6l-0.5-0.3
									c-0.2-0.9,2.6,1,1.2-0.5l-0.7-0.7c1.5,0.3,0-0.5,1.4-0.3l0.1,0.1c0.1-0.4,1.1,0.3,0.2-0.9l-0.2-0.1c0.2-0.4,0.4-0.4,0.8-0.6
									c-0.1-0.1-0.1-0.5,0.2-0.3c-0.9-0.9,0.4-1.2,0.6-1.3c-0.1,0.4,0.4,0.7,0.8,0.9c-0.6-0.9-0.6-1.1,0.2-0.8
									c-1.1-1.1-2.3-2.4-2-2.9c0.1,0.2,0.1,0.4,0.4,0.6c0.3,0.2,0.1-0.2,0.1-0.3c0.3,0.2,0.3,0.5,0.8,0.8
									c-0.8-1.3,0.4-0.6,0.4-1.4c0.2,0.5,0.6,0.6,1,0.9c-1.3-1.3,1.7,0.5-0.2-1c1.8,0.1,2.1-2.1,3.5-1.4c0.6,0.3,0-0.6,0.1-0.8
									l0.6,0.5c-0.7-1.4-0.1-0.7-0.8-2.1c0.5,0.8,0.9,1,1.7,1.3l-0.9-1.4l1,0.7c-0.2-0.5,0-0.5,0.3-0.5c-0.1,0.1,0.1,0.1,0.2,0.3
									c-1.2-1.2-0.5-1.7-1.1-2.3c1.4,0.9,0-0.7,1.3,0.2c-0.1-0.2-0.2-0.4-0.3-0.6c-0.6-0.4-1.3-0.9-0.9-0.8l0-0.1l0.8,0.6
									c-0.1-0.3,0-0.5,0.1-0.6c-0.1,0-0.3-0.1-0.5-0.2l0.5,0.1l0.1,0l0,0.1c0.2,0.1,0.4,0,0.3-0.3c1.6,0.4-0.6-2.4,1.4-1.7
									c-0.2,0-0.4,0-0.2,0.3c0.3-0.5,1.8-0.1,1.4-0.9L0.4,30c0-0.6,0-1.1,0.2-1.3l-0.8-0.6c0.6-0.2,0-2.1,1.9-1
									c-0.6-0.6,0.6-0.4,0.6-0.8L3,26.6c0.4-0.2,0.4-0.5,0.3-0.8c1.8,0.4,1-1.2,1.5-1.7L5,24.3l0-0.9C5.4,24,4.7,23,5,22.9
									c-0.2-0.4,0.2-0.6,0.8-0.5l0.3-0.3c0.1,0.7,0.9,0.7,1.6,1.2l-0.4-0.7c0.4,0.2,0.4,0.6,0.7,0.5c-0.3-0.4,0.1-0.9-0.5-1.6
									c-0.2-0.1-0.4-0.2-0.6-0.2c0,0.1,0,0,0,0l0,0l0,0L6.7,21c0.4-0.2,0-0.3-0.3-0.5c1.4,0.5,0.8-0.2,2.2,0.5
									c-1.7-0.8,0.6-0.7-1-1.6c1.3,0.6,0.2-0.1,1.3,0.5c-0.6,0.1,0.2,1.2,0.5,1.9l0.9,0.3c1.1,1.2-0.9,0.2-0.6,0.7
									c-0.2-0.3,0.3-0.3,0.6-0.1l-1-0.7c-0.7,0.1-0.2,1,0.1,1.6c0.5,0,0.3,0.8,1.2,1.1l0-0.3c0.4,0.2,0.6,0.6,0.8,0.9
									c-1.2,0.1-1.5,1.7-2.4,1.4c0.4,0.1,0.3-0.3,0.1-0.7l-0.6,0c0.2-0.3,1.2,0.2,1.1-0.4c-0.7-0.4-1.3-1.3-2.4-1.7
									c-1.5-0.1,1.2,1.8,0.3,2.4c0.1,0.2-0.9-1-0.9-0.3c0.2,1,1.3,2.5,2.6,3.6c-0.2-0.5-0.6-1.6,0.4-0.9c0.2,0.5,0.1,1.1,0.7,1.6
									c-1.3-0.6,0-0.7-1.2-1.1c-0.1,0.2,0.2,0.5,0.3,0.8c-0.4-0.5-0.9-0.5-1.2-0.6c-0.4,0.5-1.1,0.4-1.7,0.9
									c-0.2-0.1-0.6-0.3-0.8-0.5C5.7,30.3,7,32,7.8,32.4c-0.2,0.4-0.8,0-0.7,0.5c1.3,0.4-0.2,0,0.8,0.9c-0.1,0.4-0.6-0.3-0.9-0.4
									c0.1,0.1,0.3,0.5,0.6,0.8c-0.9-0.5-1.8-2-2.9-2.6C3.9,31.3,2.4,31,2.3,31c0.8,0.9,4.5,3.8,5.9,4.6c0.6,0.5-0.9-0.3-1-0.2
									c-1.3-0.5,0.3,1.2-0.3,1.2l-0.4-0.7c-0.3-0.2-0.3,0.5,0,0.9c-0.4-0.3-1.6-1.7-2.1-1.9c-0.6,0.4,0.9,2.5,1.9,3.3l-0.4-1.7
									c0.9,0.7,0.4,1.3,1.5,2.1L6.3,39c0.1-0.1,0.1-0.6-0.5-0.9c-0.2,0.4-0.3,0-0.9-0.1c-0.8-1.3-3-4.3-4.2-5.6L1,33.3L0.4,33
									c0.3,1.1,3.3,4.3,4.1,5.2C4,38.3,2.3,36.7,2,36.3c-0.6,0.5,2.1,2.7,1.4,3.1l0.6,0.1C4,39.8,3.2,40,3.6,40.2
									c-0.6-0.3-1.8-1.2-2-1.6l1.3,2c-0.1-0.2-1.6-1.4-1.9-1.7c-0.2,0.1,1.4,1.8,1.7,1.9c-1.4-0.5-0.7-0.1-2.2-0.9
									c0,0.2,1.6,1.3,1.8,1.4c0.2,0.6-0.2,0.6-0.4,0.6c-0.2-1-3.1-2.9-4.2-4l3.5,4.7c-0.2-0.3-1.5-1.5-1.7-1.7
									c1.2,1.2,0.4,2.4-0.2,2.8l0.1-0.1c-0.3-0.5-1.1-0.4-0.8,0.2c-0.2-0.3-0.1-0.2-0.1-0.3C-2.8,43,0,45.7-1.5,45
									c0.4-0.2,0-0.7-0.5-1.2c0.2,0.7-0.8,0.8,0.7,2.1c-0.5-0.1-0.4,0.2-1.1-0.5l0.3,1.5c-0.1-0.2-0.5-0.6-0.8-0.5
									c0.5-0.2-0.5-1.8,0.6-1.1c-0.9-0.9-1.5-1.2-2.1-2.1c-0.2,1.1,1,2.9,1.6,4.3l-1.2,0l0.4,0.4L-4.8,47c0.2,0.3,0.3,0.5,0.2,0.5
									c-0.1-0.1-0.2-0.2-0.3-0.4c0,0.1,0,0.3,0.1,0.4c-0.6-0.5-1.1-1.2-1.5-1.9l0.7,0.4c-0.4-0.6-0.9-1.2-1.3-1.4l0.1,0.3
									c-0.3-0.4-0.6-0.8-0.8-0.9l0.1,0.9c0.2,0.1,0.6,0.3,1,0.5c0.4,0.9,0.9,2,1.8,2.5l-0.9-0.3c0.6,1.4,0.5,1.1,0.7,2.4
									c-0.4-0.3-0.5-0.8-0.9-0.9c0.8,1.5-2.2-0.5-1.3,0.6c0,0.5,0.7,1,0.8,1.5c-0.1-0.1-0.3-0.4-0.4-0.3l0.5,1
									C-6.5,51.6-6.5,51.1-7,51c0.1,1,0.2,1.6-0.5,1.6c-0.4,0.7,1.6,1.3,1,1.5c-0.6-0.6-1.4-1.2-1.7-1.1c0.2,0.6,0.7,1,0.7,1.5
									l-0.9-1c-0.2,0.3-0.2,0.6-0.9-0.1c0.2,0.6,0,0.6-0.3,0.6c0.1,0.8,2,1.7,2.4,2c-1-0.4-0.9,0.2-2.1-0.7l0.1-0.5
									c-1.7-0.6,0.6,1.9-1.5,0.2c0.3-0.1,0.1-0.9-0.5-1.3l0.1,0.8c-0.3-0.2,0-0.3-0.4-0.5c0.1,0.3,0.3,1,0.5,1.4l0-0.1l-0.4,0.7
									c0.1-0.1-0.1-0.4-0.3-0.4l0,0.8c-0.1-0.3-0.5-0.5-0.8-0.6c-0.8,0.1,1.5,2.5,0.2,1.9c0.1,0,0-0.2,0.1-0.2l-0.6-0.3
									c1.7,2.1-1,1.2,0.7,3.3c-1-0.6-0.4-0.5-0.9-1.8l-0.8-0.3C-13.6,58.3-13.4,58.4-13.4,58z M-9.3,54.8c0.4,0.4,0.2-0.3,0.1-0.5
									C-9.5,54.2-10,53.9-9.3,54.8z M-4.7,46.5c0.4,0.1,0.6,0.2,0.4-0.1C-4.6,46.3-4.7,46.3-4.7,46.5z M6.4,23.3L6.4,23.3
									C6.1,23.3,5.9,23.3,6.4,23.3z M6.7,23.2c0.1-0.1,0.2-0.2,0-0.3L7,23.1C7.1,23.4,6.9,23.3,6.7,23.2z M-31.5,61.3l-0.2-0.2
									C-31.6,61.4-31.5,61.7-31.5,61.3z"/>
								<path class="st5" d="M-4,48l-0.4-0.3C-4.4,47.8-4.2,48-4,48z"/>
								<polygon class="st5" points="-15.9,61.4 -15.9,61.4 -15.8,61.6 								"/>
								<path class="st5" d="M8.4,34.5c-0.2,0-0.4-0.1-0.5-0.1C8.1,34.5,8.3,34.6,8.4,34.5z"/>
								<path class="st5" d="M7,20l0,0.4c0.1-0.2,0.3-0.1,0.4,0C7.3,20.2,7,20.1,7,20z"/>
								<path class="st5" d="M13.9,21.3c-0.1-0.1,0.1-0.1,0-0.2l-0.4-0.3C13.4,21.1,13.6,21.4,13.9,21.3z"/>
								<path class="st5" d="M10.1,21.7c0.7,0.5,0.6,0.1,0.6-0.1l0,0C9.8,20.8,10,21.3,10.1,21.7z"/>
								<path class="st5" d="M10.7,21.5l0.1-0.2C10.5,21,10.7,21.3,10.7,21.5z"/>
								<path class="st5" d="M7,22.3c0.2,0-0.8-0.7-0.5-0.5C5.8,21,7,23.1,7,22.3z"/>
								<polygon class="st5" points="12.3,23.2 11.5,22.6 12.1,23.2 								"/>
								<path class="st5" d="M10.6,24.2l0.5-0.1c-0.1-0.1-0.2-0.2-0.2-0.3C10.7,23.9,10.4,24,10.6,24.2z"/>
								<path class="st5" d="M10.9,23.8c0.1-0.1,0.1-0.2,0.1-0.3C10.9,23.5,10.8,23.6,10.9,23.8z"/>
								<polygon class="st5" points="12.3,23.8 12,23.7 11.8,23.9 								"/>
								<path class="st5" d="M8,27.2l0,0.5C8.2,28,8.5,28,8.5,27.8C8.3,27.6,8.3,27.4,8,27.2z"/>
								<path class="st5" d="M10.9,27.9c-0.2,0-0.4-0.2-0.7-0.3l1,0.8L10.9,27.9z"/>
								<path class="st5" d="M10.4,29.1c0.2,0.2,0.4,1.1,0.7,0.6C10.9,29.4,10.9,28.9,10.4,29.1z"/>
								<polygon class="st5" points="5.4,32.9 5.4,32.8 3.8,31.5 								"/>
								<path class="st5" d="M5.7,40.2c0.7-0.1-0.9-0.9-0.1-0.9c-0.3-0.4-0.6,0-0.9-0.4C4.9,39.5,4.6,39.5,5.7,40.2z"/>
								<path class="st5" d="M4.7,39l-0.1-0.3C4.6,38.8,4.6,38.9,4.7,39z"/>
								<polygon class="st5" points="-48.1,69.9 -48.6,69.6 -48.1,70.1 								"/>
								<path class="st5" d="M-47.9,71.5l-0.7-1.1l0.4,1.1C-48.2,71.4-48.1,71.2-47.9,71.5z"/>
								<path class="st5" d="M-6.7,55.6l-0.2-0.2c-0.3-0.2-0.3-0.2-0.5-0.1L-6.7,55.6z"/>
								<polygon class="st5" points="-10.7,57.8 -10.6,57.8 -11.5,57 								"/>
								<path class="st5" d="M-12.6,61.4c0.1-0.1,0.1-0.4,0.3-0.4C-12.4,61.3-13.5,60.3-12.6,61.4z"/>
							</g>
						</g>
					</g>
					<g>
						<path class="st6" d="M-26.9,74.6c4.2-2.5,7.6-5.1,10.2-8.4c3.2-4.2,8.6-8.8,12.8-8c3.5,0.7,4.4,0,5.6-1.1
							c0.8-0.8,1.1-2.5,3-5.2c2.3-3.2,4.4-4.5,7.2-7.3c3.1-3,3-6.2,3.2-7.5c-0.2-0.8,0.2-2.4,2.8-5.5c5.8-7.3,17.5-16.3,21.8-17.2"
							/>
						<g>
							<path class="st4" d="M-26.9,74.6c4.2-2.5,7.6-5.1,10.2-8.4c3.2-4.2,8.6-8.8,12.8-8c3.5,0.7,4.4,0,5.6-1.1
								c0.8-0.8,1.1-2.5,3-5.2c2.3-3.2,4.4-4.5,7.2-7.3c3.1-3,3-6.2,3.2-7.5c-0.2-0.8,0.2-2.4,2.8-5.5c5.8-7.3,17.5-16.3,21.8-17.2"
								/>
							<g>
								<path class="st5" d="M38.5,9.7c0.2,0,0-0.8,0-0.9C38.1,9,38.5,9.9,38.5,9.7z"/>
								<polygon class="st5" points="36.1,12.6 36,12.3 36,13.2 								"/>
								<path class="st5" d="M34,13.7c0.9,1.1,0.6-0.6,1.3-0.4l0.2,0.3l-0.4-1.1C34.7,12.9,34.5,13.9,34,13.7z"/>
								<path class="st5" d="M31.3,11.8c0.4,0.4,0,0.6,0.3,0l-0.1-0.1C31.5,11.7,31.4,11.7,31.3,11.8z"/>
								<path class="st5" d="M31.5,11.6C31.7,11.5,31.1,11.3,31.5,11.6L31.5,11.6z"/>
								<path class="st5" d="M31,12.6l0-0.6c-0.2-0.2-0.5-0.1-0.6-0.4C30.3,12,30.6,12.2,31,12.6z"/>
								<path class="st5" d="M31,13.6l0-0.3C31,13.2,30.9,13.2,31,13.6z"/>
								<path class="st5" d="M31.1,12.8l-0.1,0.6c0.2,0.2,0.4,0.6,0.1-0.2C31.3,13.5,31.2,13.1,31.1,12.8z"/>
								<path class="st5" d="M31.4,12.8C31.7,13,32,13,32,13.6C32.4,13.1,31.8,12.3,31.4,12.8z"/>
								<path class="st5" d="M34.6,15.1l0.4,0.2L35,14.8C35,15,34.4,14.7,34.6,15.1z"/>
								<path class="st5" d="M28.2,13.1c0.2,0.3,0.6,0.6,0.8,0.9l0-0.4C28.8,13.5,28.5,13.4,28.2,13.1z"/>
								<path class="st5" d="M29.4,14l0,0.6C29.7,14.5,29.6,14.2,29.4,14z"/>
								<polygon class="st5" points="31.9,15 31.8,13.7 31.8,15 								"/>
								<polygon class="st5" points="27.5,13.9 27.2,13.2 27.6,14.2 								"/>
								<path class="st5" d="M26.8,14.5c-0.2-0.6-0.8-0.7-0.8-1.1c-0.1,0.2,0,0.8,0.1,1.2C26.1,14.4,26.3,14.3,26.8,14.5z"/>
								<path class="st5" d="M26.2,15.4c0-0.2-0.1-0.4-0.1-0.7C26.1,14.8,26.1,15.1,26.2,15.4z"/>
								<path class="st5" d="M28.8,14.9c-0.1-0.1-0.5-0.5-0.7-0.5l0.6,0.6L28.8,14.9z"/>
								<path class="st5" d="M28.7,14.9L28.7,14.9c-0.2,0.1-0.2,0.1-0.3,0.1C28.5,15,28.6,15,28.7,14.9z"/>
								<path class="st5" d="M28.9,14.8L28.9,14.8C28.9,14.9,28.9,14.9,28.9,14.8z"/>
								<path class="st5" d="M30.7,14.8c0.1,0.5,0,1.2,0.8,1.5C31.2,15.8,30.8,15.6,30.7,14.8z"/>
								<path class="st5" d="M29.6,15.6l0.4-0.1c-0.1-0.2-0.4-0.4-0.4-0.7L29.6,15.6z"/>
								<polygon class="st5" points="29.6,15.9 29.6,15.6 29.5,15.6 								"/>
								<path class="st5" d="M27.2,15.6c0.1,0.4,0,0.5-0.1,0.7c0.3,0,0.5-0.1,0.7-0.2C27.6,15.9,27.4,15.5,27.2,15.6z"/>
								<path class="st5" d="M28,15.4L28,15.4C28.1,15.5,28.1,15.5,28,15.4z"/>
								<polygon class="st5" points="25.6,17.5 25.7,17.6 25.6,17.5 								"/>
								<path class="st5" d="M27.9,16.3c0.2,0,0.2-0.2,0.1-0.5l-0.2,0.3C27.8,16.3,27.9,16.3,27.9,16.3z"/>
								<path class="st5" d="M26,16l0.5,0.2C26.3,16.1,25.9,15.8,26,16z"/>
								<path class="st5" d="M27.8,15.3L27.8,15.3C27.7,15.1,27.7,15.2,27.8,15.3z"/>
								<path class="st5" d="M27.8,15.3c0,0.1,0.1,0.4,0.1,0.5l0-0.4L27.8,15.3z"/>
								<path class="st5" d="M28.6,22.2c-0.5-0.6-0.6-1.5,0.2-1c-0.1-0.7-1.9-2.6-3-3.5c0.2,0.3,0.4,0.5,0.4,1.1
									c0.4,0.3,1.2,0.3,1.5,1c-0.1,0.6-0.5,0-0.9-0.2c0.8,0.6,0.4,1.5,1.4,2.5l0-0.6C28.2,21.7,28.3,22.1,28.6,22.2z"/>
								<path class="st5" d="M26.3,17.3l0.1-0.2c-0.2,0-0.5-0.2-1.1-0.5c0,0.5,0.2,0.7,0.3,0.9l0.6-0.4L26.3,17.3z"/>
								<path class="st5" d="M26.8,16.7c0.4,0.8,0.4,1.3,1.1,1.9c0.3-0.3-0.2-0.8-0.2-1.2C27.3,17.9,27.6,16.8,26.8,16.7
									c0.1-0.1,0.2-0.2,0.2-0.3l-0.5-0.1l0,0l0,0l0,0c0.1,0.1,0.1,0.1,0.1,0.1l0,0L26.8,16.7c-0.3,0-0.2-0.2-0.2-0.3l-0.1-0.1l0,0
									l-0.3,0.8C26.5,17.1,26.6,16.9,26.8,16.7z"/>
								<path class="st5" d="M32.2,18.1l-0.1-0.2C32.1,18,32.1,18.1,32.2,18.1z"/>
								<path class="st5" d="M31.7,17.8c0-0.1-0.2-0.4,0-0.5c0.3,0.1,0.2,0.3,0.4,0.6c-0.1-0.2-0.1-0.7-0.6-0.9l0,0.1
									c-0.4-0.1-1.3-0.7-1.3-0.9C30.7,16.9,31.1,17.3,31.7,17.8z"/>
								<path class="st5" d="M29.4,17.4l-0.2,0.7l0.7,0.4l-0.3-0.4C30,18.1,29.6,17.7,29.4,17.4z"/>
								<polygon class="st5" points="25.2,17.2 24.7,16.5 25.3,17.7 								"/>
								<polygon class="st5" points="24.7,17.8 24.2,17.2 24.4,17.7 								"/>
								<path class="st5" d="M7.7,55.9l0.1,0.2L7.7,55.9z"/>
								<path class="st5" d="M8.2,55.2L7.9,55C8,55.1,8.2,55.2,8.2,55.2z"/>
								<path class="st5" d="M11.3,32.4c-0.8,0-2.1-0.2-1.2,0.2l0.8,0.3C10.9,32.6,11.1,32.5,11.3,32.4z"/>
								<polygon class="st5" points="11,45.7 11.2,45.8 10.8,45.1 								"/>
								<path class="st5" d="M13.3,48.4l-0.6-0.2L13.3,48.4z"/>
								<path class="st5" d="M0.6,63.9l-0.3,1C1.1,64.7,0.7,64.3,0.6,63.9z"/>
								<path class="st5" d="M19,23.3c-0.4-0.1-0.6-0.1-0.8,0C18.8,23.5,19.5,23.9,19,23.3z"/>
								<path class="st5" d="M0,50.9C0,51,0.2,51.2,0.3,51.3C0.3,51.1,0.2,50.9,0,50.9z"/>
								<path class="st5" d="M17.8,23.8l0.2,0.1c0-0.2,0-0.4,0.2-0.5C17.9,23.2,17.5,23.2,17.8,23.8z"/>
								<path class="st5" d="M-16.4,73l-0.1,0C-16.4,73.1-16.4,73-16.4,73z"/>
								<path class="st5" d="M-27.3,70.3l0.2-0.2C-27.2,70.1-27.2,70.1-27.3,70.3z"/>
								<path class="st5" d="M22.1,19.5C22.2,19.4,22,19.4,22.1,19.5L22.1,19.5z"/>
								<path class="st5" d="M24.9,21.6c0,0.1,0.1,0.2,0.2,0.4C25,21.8,24.9,21.7,24.9,21.6z"/>
								<path class="st5" d="M20.6,28.7L20.6,28.7C20.7,28.8,20.7,28.7,20.6,28.7z"/>
								<path class="st5" d="M22.5,19.6l-0.3-0.1C22.3,19.6,22.4,19.6,22.5,19.6z"/>
								<path class="st5" d="M22.2,19.4l0.2,0C22.3,19.2,22.2,19.1,22.2,19.4z"/>
								<polygon class="st5" points="21.9,19.7 22.2,19.6 22.1,19.5 								"/>
								<path class="st5" d="M-9.4,62.6L-9.4,62.6C-9.3,62.9-9.3,62.8-9.4,62.6z"/>
								<polygon class="st5" points="18.9,39.1 18.9,39.1 18.8,39.1 								"/>
								<path class="st5" d="M19.4,40c-1-0.5-0.9-0.6-0.6-0.8L16.3,39L19.4,40z"/>
								<path class="st5" d="M6.9,57.9c-1.2-0.2-0.4,1.4-0.5,2.6C5.8,60.6,5,59,4.6,60.2c-0.5,1.2,1.5,1.3,1.2,2
									c-0.4-0.2-0.9-0.4-1.4-0.6c-0.2,1.6-2.2,1.6-3.4,1.7c-0.2,0.2-0.3,0.3-0.4,0.5c-1.3-0.3-2.3,1.6-3,1.1
									c0.2-0.3-0.3-0.9-0.3-1.3c-0.4,0.3-0.8,0.5-1.1,0.7c0.5-0.3,0.6-1.1,0.7-1.9c-0.3,0-0.5,0.5-0.7,0.5
									c0.2-0.3,0.3-0.5,0.2-0.9l-1.2,1.2c0,0.1,0.1,0.2,0.2,0.3c-0.4-0.1-0.5,0.5-0.4-0.1l0.1-0.9c-0.1,0.9,0,0.1,0.2-0.5
									c-0.3,0.2,0-0.2-0.1-0.8c-0.2,0-0.3,1.1-0.3,1.8c0-0.3-0.1-0.6-0.1,0.3l-0.1-1.1l-0.1,0.4l0-1.4C-5.8,60.5-5,63-5.5,62.5
									l-0.2-0.9c-0.1,0.4,0.4,1.9-0.1,0.9c0,0.6,0.7,1.2,0.4,1.5c-0.2-0.4-0.5-0.7-0.7-0.8c0.1,0.5,0.5,1,0.6,0.9
									c-0.3,0.7-1.8-2.9-1.8-1.4c0.5,0.5,0.8,1.7,1.2,1.4c0.1,0.6-1.1-0.9-0.8,0.1L-7.6,63c-0.1,0,0,0.5,0,0.6L-8,62.8
									c0.6,1.6-1.1-0.3,0,1.7c-0.9-1.5-0.2,0.3-0.7-0.2c-0.5-1.2,0.8-0.6-0.1-1.9c-0.4-0.3-0.1,0.4-0.5,0.1c0-0.3-0.2-0.7-0.3-1
									c-1-0.4-0.2,1.3-0.2,1.8l0.2-0.7c0.9,1.3-0.1,0.4,0.6,1.5c-0.7-0.5-0.2,0.6-0.7,0.3c0.1,0,0-0.2,0-0.2
									c-0.4,0.4-2.3-1.4-2.5-1.2c-0.3,0-0.1,1,0.5,1.4c0.1,0.5,0.3-0.9,1.4,0.8c-1.9-1.5,0,1.1-1.6,0.5c-0.4-0.9-1.1-0.8-1.3-1.5
									c-0.1,0.4,0.1,0.7,0.5,1.3l-0.6-0.4c0.9,1.5,1,1.1,1.1,2.2c-0.3-0.6-1-0.5-1.3-1c-0.2,0.1-0.1,0.4,0.1,0.9l-0.1-0.1
									c-0.2,0.9-1.1-0.1-1,1l0.4,0.2c0.1,1.6-1.4,2.4-2,3.6l0.6,0c-0.3-0.1-0.1,1.1-0.9,0.9c0-0.1,0-0.3,0.1-0.3
									c-0.4-0.4-1-0.8-1.3-0.7l0.4,0.6l-0.5-0.4c-0.3,0.3,0.8,0.7,0.5,1c-1.6-1.5-1.6,1.1-3.2-0.2c0.7,1.4,0.8-0.3,1.4,1
									c-0.3-0.1-0.5-0.3-0.8-0.2l0.7,0.7c-1.4,0.4-2.3,0-3.1,0.9l-0.1-0.2c-0.5-0.1-0.6,0.2-0.3,0.9c-0.3-0.3-0.2-0.7-0.5-0.9
									c0.7,2.4-2.1-0.8-1.6,0.9c-1-1.7-2.6-2.8-3.1-4.2l-0.1,0.3c-0.6-1.1,0.7-0.5,0.1-1.7l1.4,0.7c-0.3-0.4-0.5-1.1-0.7-1.1
									c0.2-0.1,0.3-0.3-0.3-0.7c3.4,1.6,3.2-2,5.6-1.9c0-0.2-0.3-0.4-0.6-0.6c1.1,0.7-0.2-0.7-0.2-0.9l1.6,0.9
									c-0.2-0.5-0.7-0.8-1-1c0.4-0.8,2.2-0.4,1.9-1.6c0.6,0.2,1.1,0.9,1.4,0.8c-1.7-0.8,0-1.3-1.2-1.9c1.8,0.9,1.2-0.9,3.2,1
									c0.4-0.2-0.6-1-0.9-1.1c0.4-0.4,0.7-0.6,0.4-1.5c0.6,0.2,1.3-2.3,3-1.1c-1.1-0.8-0.4-0.5-0.6-1.2l-1-0.7l0.6-0.4
									c0.1-0.2,0.1-0.2,0.2-0.1c0.1,0,0.4,0.5,0.8,0.6c0.4-0.3,0.1-0.8-0.1-1.4l-0.2-0.1l0.2-0.3c0.2-0.1,0,1.5,1,1.4
									c-0.2-0.3-0.7-1.8,0-1.3c-0.4,0.2,0.1,0.8,0.5,1l0.5-0.3l-1-1.1c1.6-0.9,3.7-1,5.8-1.6c0.2,1.3,1.5-0.3,1.6,1.7l-0.1-0.2
									c-0.4,0.3,0.3,1.4,0.6,1.3c-0.5-0.6,0.7-1.9-0.4-2.2l0.9-0.9c1.3-3.6,2.3,0.6,2.8-0.6c-0.1,0.1-0.1,0.3-0.1,0.4
									c0.6-1.1,0.8,1,0.9,0.4l0.3,0.9c-0.2-1.5-0.8-1.3-0.1-1.1c0.1,0.1,0.2,0.4,0.4,0.5c-0.2-0.3-0.4-0.6-0.5-0.9L-1,54.3l0,0
									l0,0v0v0v0v0c-0.3-0.3,2.5,2.6,1.3,1.4l0,0l0,0l-0.3-0.3c-0.2-0.3-1.2-1.1-1.2-1l0.3,0.2c-0.1,0-0.1,0.1,0-0.3
									c2.7,1.5-1-2.1,2.1-1c-0.7-0.6-0.6-1.4-0.8-1.9l0.4,0.1c-1.2-1.2,1.1-0.7,1.2-1.2c-0.2-0.5-0.7-0.7-1.2-0.9
									c1.4,0.3-0.1-2.2,0.5-2.1c0.4-0.3,1,0.6,1.6,1c0.2-0.7-2.2-1.7-0.7-1.6c0,0.2,0,0.4,0.2,0.4c0.4-0.1,3.4,1.8,3.1,1.2L4.9,48
									c-0.2-1,2.7,0.8,1.3-0.7l-0.7-0.6c1.6,0.3,0-0.6,1.5-0.4L7,46.5c0.2-0.4,1.1,0.3,0.2-0.9L7,45.5c0.3-0.4,0.4-0.4,0.8-0.6
									c-0.1-0.1,0-0.5,0.2-0.3c-0.8-1,0.4-1.2,0.6-1.3c-0.1,0.4,0.4,0.7,0.8,1c-0.5-0.9-0.5-1.1,0.2-0.8c-1.1-1.2-2.2-2.5-1.8-2.9
									C8,40.8,8,41,8.2,41.2c0.3,0.2,0.1-0.2,0.1-0.3c0.3,0.2,0.3,0.5,0.7,0.9c-0.8-1.3,0.2-0.4,0.1-1.1c0.3,0.4,0.6,0.5,1.1,0.8
									c-1.4-1.1,1.6,0.5-0.4-0.8c1.7,0.2,0.9-1.5,2.5-1.4C13,39.5,12,39,12,38.8l0.8,0.2c-1.3-0.7-0.5-0.5-1.8-1.2
									c0.9,0.3,1.3,0.3,2.1,0.2l-1.6-0.6l1.2,0c-0.4,0.2-0.3-1.5,0,0.2l0,0.1c0-0.4,0.1,1,0-1l0,0l0.1,0c0.1,0.4,0.1-0.8,0.3,0.9
									c-1.8,0.3-1.6-2.6-2.2-2.6c1.7,0.1-0.1-1.2,1.5-0.9c-0.2-0.2-0.3-0.4-0.4-0.6c-0.7-0.2-1.5-0.5-1-0.6l0-0.1l0.9,0.3
									c-0.1-0.3,0-0.6,0-0.8c-0.1,0-0.3,0-0.6,0l0.6-0.1l0.1-0.1l0,0.1c0.3,0,0.5-0.1,0.3-0.5c1.7-0.1-0.6-2.6,1.5-2.2
									c-0.2,0-0.4,0.1-0.2,0.3c0.4-0.6,1.9-0.4,1.6-1.1l-0.7-0.5c0-0.6,0.1-1.1,0.4-1.4l-0.8-0.7c0.7-0.2,0.3-2.3,2.1-1.2
									c-0.5-0.7,0.7-0.4,0.8-0.8l0.6,0.5c0.5-0.1,0.5-0.5,0.5-0.8c1.8,0.5,1.2-1.2,1.8-1.6l0.2,0.2l0.2-0.9
									c0.3,0.6-0.2-0.5,0.1-0.5c-0.1-0.4,0.4-0.6,0.9-0.4l0.4-0.3c0,0.8,0.8,0.8,1.4,1.5l-0.3-0.7c0.4,0.2,0.3,0.7,0.6,0.7
									c-0.2-0.5,0.3-0.9-0.2-1.7c-0.2-0.2-0.4-0.3-0.5-0.3c0,0.1,0,0,0,0l0,0l0,0l-0.2-0.3c0.4-0.1,0.1-0.3-0.2-0.6
									c1.2,0.8,0.8-0.1,2.1,1c-1.5-1.1,0.8-0.6-0.6-1.8c1.2,0.9,0.2-0.1,1.1,0.7c-0.6,0-0.1,1.3,0,2l0.8,0.4c0.9,1.4-1,0-0.8,0.6
									c-0.1-0.4,0.4-0.3,0.6,0l-0.9-0.9c-0.7-0.1-0.4,0.9-0.2,1.6c0.5,0.1,0.2,0.8,0.9,1.3l0.1-0.3c0.4,0.2,0.4,0.7,0.6,1.1
									c-1.2-0.1-1.8,1.4-2.6,0.9c0.3,0.1,0.4-0.3,0.2-0.6l-0.6-0.1c0.2-0.2,1.1,0.4,1.2-0.2c-0.6-0.5-1-1.5-2-2.1
									c-1.5-0.3,0.8,2-0.2,2.5c0.1,0.2-0.7-1.1-0.8-0.4c0,1.1,0.9,2.7,2.1,3.9c-0.1-0.6-0.4-1.7,0.5-0.9c0.1,0.6,0,1.1,0.5,1.7
									c-1.2-0.8,0.1-0.7-1-1.2c-0.1,0.2,0.1,0.6,0.3,0.8c-0.3-0.5-0.8-0.6-1.1-0.8c-0.5,0.5-1.2,0.3-1.8,0.7
									c-0.2-0.1-0.6-0.4-0.8-0.6c0,0.5,1.3,2.3,2,2.8c-0.2,0.3-0.7-0.1-0.7,0.4c1.3,0.4-0.2-0.1,0.8,0.9c-0.1,0.4-0.6-0.3-0.9-0.4
									c0.1,0.1,0.3,0.5,0.6,0.8c-0.9-0.5-1.8-2.1-2.9-2.7c-0.7-0.4-2.3-0.6-2.4-0.6c0.8,0.9,4.5,3.8,5.8,4.6
									c0.6,0.5-0.9-0.3-1-0.3c-1.3-0.5,0.4,1.1-0.2,1.1L20.6,34c-0.3-0.2-0.2,0.5,0.1,0.8c-0.4-0.2-1.7-1.6-2.2-1.8
									c-0.6,0.4,1.1,2.3,2.3,3l-0.6-1.5c0.9,0.6,0.5,1.2,1.7,1.9c-0.2,0.1-0.6,0.3-0.7,0.4c0-0.1-0.1-0.5-0.7-0.7
									c-0.1,0.3-0.2,0-0.8-0.1c-1.1-1-3.5-3.8-4.8-5.1l0.3,0.9l-0.6-0.3c0.3,1.1,3.7,4,4.7,4.6c-0.4,0.1-2.5-1.1-2.8-1.4
									c-0.4,0.6,2.6,2.2,2.3,2.2l0.5,0.1c0.2,0.1-0.3,0,0.1,0.1c-0.7-0.1-2.1-0.3-2.5-0.4c0.7,0.2,1.6,0.1,2.2-0.3
									c-0.2,0.1-2.1,0.4-2.5,0.4c0,0,0.1,0,0.3,0l0.2,0c0.1,1.5,0.1,0.5,0.2,0.8l0.4,0.1c0.6,0.1,1.2,0.2,1.4,0.2
									c-1.4,0.2-0.7,0.2-2.3,0.4c0.1,0.2,2,0.2,2.2,0.1c0.5,0.5,0.2,0.7,0,0.8c-0.7-0.8-4.2-0.7-5.7-1c1.8,0.6,3.7,1.3,5.4,2.3
									c-0.3-0.1-2.1-0.6-2.3-0.7c1.7,0.4,1.4,2.4,0.7,3.1l0-0.1c-0.5-0.4-1.2,0.1-0.8,0.6c-0.3-0.2-0.2-0.2-0.1-0.3
									c-1.4-0.1,1.9,2,0.2,1.7c0.5-0.4-0.1-0.8-0.7-1.1c0.3,0.7-0.8,1.2,0.9,2.1c-0.5,0-0.5,0.4-1.3-0.3l0.2,1.6
									c-0.1-0.2-0.5-0.6-0.8-0.5c0.6-0.3-0.4-1.9,0.8-1.4c-1-0.7-1.6-1-2.3-1.8c-0.1,1.1,1,3,1.5,4.5l-1.3-0.1l0.4,0.4l-1.1-0.9
									c0.1,0.3,0.3,0.6,0.2,0.5c-0.1-0.1-0.2-0.2-0.3-0.4c0,0.1,0,0.3,0.1,0.4c-0.5-0.5-1-1.3-1.4-1.9l0.7,0.4
									c-0.4-0.6-0.8-1.2-1.3-1.4l0.1,0.3c-0.3-0.5-0.5-0.8-0.7-0.9l0,0.9c0.2,0.1,0.5,0.3,0.9,0.6c0.4,0.9,0.8,2.1,1.7,2.6
									l-0.9-0.3c0.5,1.4,0.4,1.2,0.6,2.4c-0.4-0.3-0.5-0.8-0.8-1c0.7,1.5-2.1-0.6-1.3,0.5c-0.1,0.5,0.7,1,0.8,1.5
									c-0.1-0.1-0.3-0.4-0.4-0.3l0.5,0.9c-0.3-0.2-0.3-0.7-0.8-0.8c0.2,0.9,0.4,1.5-0.3,1.4c-0.2,0.6,1.6,1.2,1.2,1.4
									c-0.7-0.5-1.4-1.2-1.7-1c0.3,0.5,0.8,0.9,1,1.4l-1-0.9c-0.1,0.2,0,0.5-0.8-0.1c0.3,0.5,0.1,0.5-0.1,0.5
									c0.3,0.7,2.2,1.4,2.6,1.7c-0.9-0.4-0.6,0.1-2-0.6l-0.1-0.4C7.6,54,10.4,56,8,54.7c0.2-0.1-0.2-0.8-0.8-1.1l0.3,0.7
									c-0.3-0.2-0.1-0.3-0.5-0.4C7.2,54.1,7.7,54.7,8,55l-0.1,0l-0.1,0.6c0.1-0.1-0.3-0.3-0.4-0.3l0.4,0.7
									c-0.2-0.3-0.6-0.4-0.9-0.3c-0.6,0.3,2.4,1.7,1,1.5c0,0-0.1-0.1,0-0.2l-0.6-0.1c2.5,1.1-0.5,1.6,1.9,2.9
									c-1.2,0-0.5-0.4-1.5-1.4l-0.9,0.1C6.7,58.2,7,58.2,6.9,57.9z M8.7,54.2c0.5,0.3,0.1-0.2,0-0.4C8.3,53.8,7.9,53.5,8.7,54.2z
									 M12.5,46.5c0.4,0.2,0.6,0.2,0.4-0.1C12.7,46.3,12.5,46.4,12.5,46.5z M21.3,21.3L21.3,21.3C21,21.3,20.8,21.2,21.3,21.3z
									 M21.6,21.3c0.1,0,0.2-0.1,0.1-0.3l0.2,0.3C22,21.5,21.8,21.4,21.6,21.3z M-14.4,58.6l-0.3-0.1
									C-14.5,58.7-14.4,58.9-14.4,58.6z"/>
								<path class="st5" d="M13.1,48.1l-0.4-0.4C12.7,47.9,12.9,48,13.1,48.1z"/>
								<polygon class="st5" points="0.7,63.7 0.6,63.7 0.6,63.9 								"/>
								<path class="st5" d="M22.1,32.7c-0.2,0-0.3-0.1-0.5-0.2C21.8,32.7,21.9,32.8,22.1,32.7z"/>
								<path class="st5" d="M23.1,18.1L23,18.5c0.1-0.1,0.3,0,0.5,0C23.3,18.4,23,18.2,23.1,18.1z"/>
								<path class="st5" d="M29.2,20.8c0-0.1,0.1-0.1,0-0.2l-0.3-0.3C28.8,20.4,28.9,20.8,29.2,20.8z"/>
								<path class="st5" d="M25.4,20.3c0.5,0.6,0.5,0.3,0.6,0l0,0C25.3,19.4,25.4,19.9,25.4,20.3z"/>
								<path class="st5" d="M26.1,20.3l0.2-0.2C25.9,19.7,26.1,20.1,26.1,20.3z"/>
								<path class="st5" d="M22.1,20.4c0.2,0.1-0.6-0.8-0.4-0.6C21.2,18.9,22,21.2,22.1,20.4z"/>
								<polygon class="st5" points="27.3,22.3 26.6,21.5 27,22.2 								"/>
								<path class="st5" d="M25.4,22.9l0.5,0c-0.1-0.1-0.1-0.2-0.1-0.3C25.5,22.7,25.2,22.7,25.4,22.9z"/>
								<path class="st5" d="M25.7,22.5c0.1-0.1,0.2-0.2,0.1-0.3C25.8,22.3,25.7,22.4,25.7,22.5z"/>
								<polygon class="st5" points="27.1,22.8 26.8,22.7 26.6,22.8 								"/>
								<path class="st5" d="M22.2,25.5L22.1,26c0.2,0.3,0.4,0.3,0.4,0.1C22.5,25.9,22.5,25.7,22.2,25.5z"/>
								<path class="st5" d="M25,26.7c-0.2-0.1-0.4-0.2-0.7-0.4l0.8,0.9L25,26.7z"/>
								<path class="st5" d="M24.4,27.7c0.2,0.3,0.3,1.1,0.6,0.7C24.7,28.1,24.8,27.6,24.4,27.7z"/>
								<polygon class="st5" points="19.1,31 19.2,30.9 17.6,29.6 								"/>
								<path class="st5" d="M20.5,37.4c0.6,0-1.1-0.6-0.4-0.6c-0.4-0.3-0.6,0-0.9-0.3C19.5,36.9,19.2,36.8,20.5,37.4z"/>
								<path class="st5" d="M19.1,36.5l-0.2-0.2L19.1,36.5z"/>
								<polygon class="st5" points="-28.7,69.9 -29.2,69.7 -28.7,70.2 								"/>
								<path class="st5" d="M-28.4,71.5l-0.7-1.1l0.4,1.1C-28.7,71.4-28.6,71.3-28.4,71.5z"/>
								<path class="st5" d="M11.1,55l-0.2-0.2c-0.3-0.2-0.3-0.2-0.4-0.1L11.1,55z"/>
								<polygon class="st5" points="8.6,56.8 8.7,56.8 7.6,56.3 								"/>
								<path class="st5" d="M7,62.3C7.3,62,7.5,61.4,7.8,61C7.3,62,5.9,61.4,7,62.3z"/>
							</g>
						</g>
					</g>
					<g>
						<path class="st7" d="M-7.3,74.6c4.9-3,8.5-6.2,10.5-11.2c2.3-5.6,9.3-11.2,14.2-8.6c4.7,2.5,3.8,3.6,3.9,3.2
							c-0.1-0.2-1.2-2.1,1-6.1c2.4-4.4,4.5-5.1,8.3-8.7c4-3.8,1.7-8-0.1-7.9c-2,0.1-2.7-0.9,0.7-5.3c6.5-8.2,24.6-19.2,26.6-12.8"/>
						<g>
							<path class="st4" d="M-7.3,74.6c4.9-3,8.5-6.2,10.5-11.2c2.3-5.6,9.3-11.2,14.2-8.6c4.7,2.5,3.8,3.6,3.9,3.2
								c-0.1-0.2-1.2-2.1,1-6.1c2.4-4.4,4.5-5.1,8.3-8.7c4-3.8,1.7-8-0.1-7.9c-2,0.1-2.7-0.9,0.7-5.3c6.5-8.2,24.6-19.2,26.6-12.8"
								/>
							<g>
								<path class="st5" d="M62.4,15.5c0.1,0.4,0.8,0,1,0.1C62.9,14.8,62.2,15.6,62.4,15.5z"/>
								<polygon class="st5" points="56.8,12.6 57,12.3 56.1,12.9 								"/>
								<path class="st5" d="M53.1,12.4c0.4,1.3,1.2-0.3,1.8,0.2l0.1,0.3l0.3-1.1C54.5,11.9,53.6,12.7,53.1,12.4z"/>
								<path class="st5" d="M50.8,9.7c0.3,0.5-0.3,0.6,0.5,0.1l-0.1-0.1C51.1,9.7,51,9.7,50.8,9.7z"/>
								<path class="st5" d="M51.1,9.7C51.5,9.5,50.8,9.2,51.1,9.7L51.1,9.7z"/>
								<path class="st5" d="M49.7,10.4L50,9.8c-0.2-0.3-0.6-0.2-0.5-0.5C49.1,9.7,49.3,9.9,49.7,10.4z"/>
								<path class="st5" d="M49.6,11.5l0.1-0.3C49.7,11.1,49.6,11.1,49.6,11.5z"/>
								<path class="st5" d="M50.1,10.7l-0.3,0.6c0.1,0.2,0.3,0.6,0.2-0.2C50,11.4,50,11,50.1,10.7z"/>
								<path class="st5" d="M50.4,10.8c0.3,0.2,0.6,0.3,0.4,0.9C51.5,11.3,51.1,10.4,50.4,10.8z"/>
								<path class="st5" d="M53.2,13.9l0.3,0.4l0.2-0.5C53.6,14,53.1,13.4,53.2,13.9z"/>
								<path class="st5" d="M46.9,10.6c0.1,0.3,0.4,0.7,0.6,1l0.1-0.4C47.5,11.1,47.1,11,46.9,10.6z"/>
								<path class="st5" d="M47.5,11.6l-0.2,0.7C47.7,12.2,47.7,11.9,47.5,11.6z"/>
								<polygon class="st5" points="50,13 50.4,11.8 49.9,13.1 								"/>
								<polygon class="st5" points="45.3,11.2 45.3,10.5 45.3,11.7 								"/>
								<path class="st5" d="M44.4,11.8c-0.1-0.6-0.7-0.8-0.6-1.2c-0.2,0.2-0.2,0.8-0.2,1.3C43.6,11.6,43.9,11.6,44.4,11.8z"/>
								<path class="st5" d="M43.5,12.7c0-0.2,0-0.5,0-0.8C43.5,12.1,43.4,12.4,43.5,12.7z"/>
								<path class="st5" d="M46.6,12.4c-0.1-0.2-0.4-0.6-0.7-0.7l0.5,0.7L46.6,12.4z"/>
								<path class="st5" d="M46.4,12.5L46.4,12.5c-0.2,0-0.3,0.1-0.4,0.1C46.1,12.6,46.2,12.6,46.4,12.5z"/>
								<path class="st5" d="M46.6,12.4L46.6,12.4C46.6,12.5,46.7,12.5,46.6,12.4z"/>
								<path class="st5" d="M48.7,12.7c-0.1,0.5-0.3,1.2,0.4,1.7C49,13.8,48.6,13.5,48.7,12.7z"/>
								<path class="st5" d="M47.3,13.4l0.5,0c-0.1-0.2-0.3-0.5-0.3-0.7L47.3,13.4z"/>
								<polygon class="st5" points="47.2,13.8 47.3,13.4 47.1,13.4 								"/>
								<path class="st5" d="M44.5,13.1c0,0.4-0.2,0.5-0.4,0.7c0.3,0,0.6,0,0.8-0.1C44.9,13.4,44.8,12.9,44.5,13.1z"/>
								<path class="st5" d="M45.5,12.9L45.5,12.9C45.5,13,45.6,13,45.5,12.9z"/>
								<polygon class="st5" points="42.2,14.9 42.3,15 42.2,14.9 								"/>
								<path class="st5" d="M45.1,13.8c0.2,0.1,0.3-0.2,0.2-0.5L45,13.7C45,13.8,45,13.9,45.1,13.8z"/>
								<path class="st5" d="M43.1,13.4l0.5,0.3C43.4,13.4,43,13.2,43.1,13.4z"/>
								<path class="st5" d="M45.3,12.7L45.3,12.7C45.2,12.6,45.2,12.6,45.3,12.7z"/>
								<path class="st5" d="M45.3,12.7c0,0.2,0,0.4,0,0.6l0.2-0.4L45.3,12.7z"/>
								<path class="st5" d="M44.4,19.9c-0.4-0.7-0.4-1.6,0.4-1c0-0.7-1.5-2.9-2.5-3.9c0.2,0.3,0.3,0.6,0.2,1.2
									c0.4,0.3,1.3,0.4,1.4,1.2c-0.3,0.6-0.5,0-1-0.3c0.7,0.7,0.2,1.6,1,2.8l0.1-0.7C44.1,19.4,44.2,19.8,44.4,19.9z"/>
								<path class="st5" d="M43,14.7l0.1-0.2c-0.2,0-0.5-0.2-1.1-0.6c-0.1,0.5,0,0.8,0.1,1l0.8-0.3L43,14.7z"/>
								<path class="st5" d="M43.8,14.1c0.3,0.8,0.1,1.4,0.8,2c0.4-0.3,0-0.8,0.1-1.3C44,15.5,44.6,14.3,43.8,14.1
									c0.1-0.1,0.2-0.2,0.3-0.3l-0.6-0.1l0,0l0,0l0,0c0.1,0.1,0.1,0.1,0.1,0.1l0,0L43.8,14.1c-0.3,0-0.1-0.2-0.1-0.3l-0.1-0.1l0,0
									l-0.5,0.8C43.4,14.5,43.5,14.4,43.8,14.1z"/>
								<path class="st5" d="M49.4,16.3l-0.1-0.2C49.3,16.2,49.3,16.3,49.4,16.3z"/>
								<path class="st5" d="M48.9,15.9c0-0.1-0.1-0.5,0.1-0.5c0.2,0.2,0.2,0.4,0.3,0.6c0-0.3,0.1-0.7-0.4-1l0,0.1
									c-0.4-0.2-1.2-1-1.2-1.1C48.1,14.8,48.4,15.3,48.9,15.9z"/>
								<path class="st5" d="M46.5,15.1l-0.4,0.7l0.6,0.5l-0.2-0.4C46.9,15.9,46.6,15.5,46.5,15.1z"/>
								<polygon class="st5" points="41.9,14.6 41.5,13.7 41.8,15 								"/>
								<polygon class="st5" points="41.2,15.1 40.8,14.4 40.8,15 								"/>
								<path class="st5" d="M26.1,54.9l0.2,0.2L26.1,54.9z"/>
								<path class="st5" d="M26.5,54.2l-0.3-0.2C26.4,54.1,26.5,54.2,26.5,54.2z"/>
								<path class="st5" d="M24.5,31.3c-0.9,0-2.3,0.8-1.4,1l0.9-0.1C24.1,31.6,24.2,31.6,24.5,31.3z"/>
								<polygon class="st5" points="30,43.9 30.2,44.1 29.8,43.3 								"/>
								<path class="st5" d="M32.2,46.7l-0.7-0.2C31.8,46.7,32,46.7,32.2,46.7z"/>
								<path class="st5" d="M16.4,60.8l-0.6,0.6C16,61.5,16.2,61.1,16.4,60.8z"/>
								<path class="st5" d="M33.9,20.7c-0.4-0.1-0.7-0.1-0.8,0C33.6,20.9,34.3,21.3,33.9,20.7z"/>
								<path class="st5" d="M17.9,50.6c0.1,0.2,0.2,0.3,0.4,0.4C18.2,50.9,18.1,50.7,17.9,50.6z"/>
								<path class="st5" d="M32.5,21.2l0.2,0.1c0.1-0.2,0.1-0.4,0.3-0.5C32.6,20.6,32.3,20.6,32.5,21.2z"/>
								<path class="st5" d="M4.2,71.2l-0.1,0C4.2,71.3,4.2,71.2,4.2,71.2z"/>
								<path class="st5" d="M-7.6,70.2c0-0.1,0.1-0.1,0.2-0.2C-7.5,69.9-7.5,70-7.6,70.2z"/>
								<path class="st5" d="M37.9,16.8C38,16.6,37.9,16.7,37.9,16.8L37.9,16.8z"/>
								<path class="st5" d="M40.6,19.1c0,0.1,0.1,0.2,0.2,0.4C40.6,19.3,40.6,19.2,40.6,19.1z"/>
								<path class="st5" d="M34.7,26.4L34.7,26.4C34.9,26.5,34.8,26.5,34.7,26.4z"/>
								<path class="st5" d="M38.4,16.9L38,16.9C38.1,16.9,38.2,16.9,38.4,16.9z"/>
								<path class="st5" d="M38.1,16.6l0.2,0C38.2,16.5,38.2,16.4,38.1,16.6z"/>
								<polygon class="st5" points="37.7,17 38,16.9 37.9,16.8 								"/>
								<path class="st5" d="M10.2,58.6L10.2,58.6C10.2,59,10.2,58.9,10.2,58.6z"/>
								<polygon class="st5" points="34.4,32.7 34.3,32.7 34.4,32.8 								"/>
								<path class="st5" d="M35.9,33.5c-1.2,0.1-1.2-0.1-1.6-0.7c-0.4,0.7-0.9,1.4-1.4,2.1C33.8,34.3,34.8,33.8,35.9,33.5z"/>
								<path class="st5" d="M25.8,56.1c-1.2,0.1,0.3,0.2,1-0.3c-0.4-0.1-2,0.5-1.6,0.2c0-1.3,2-0.4,1.8-1.5l-0.1,0l-0.1,0l0,0l0,0
									h0.5h0h0c1.4,10.2,0.4,2.8,0.7,5.1l0,0l0,0c0.1-0.5,0.1-1.1,0.1-1.6c-0.1-0.5-0.2-1.1-0.4-1.5c0-0.1-0.1-0.2-0.2-0.4
									c-0.4-0.4,0.6,0-2-2.7c-0.7-0.8-3.8-2-6.3-0.5c-2.2,1.4-2.5,2.7-2.7,3.2c-0.4,1.2-0.3,1.5-0.3,1.7c0,0.5,0,0.6,0.1,0.7
									c0.3,0.5,0.6,0.8,1,1.2c-0.1,2.1,0.4,0.9,0.4,0.7l-0.3,0.3c0-0.7-1.3,0.7-1.4,0.2c0.2-0.2,0.3-0.8,0.4-1.2l-1,0.4
									c0.4-0.2,0.8-0.9,1.2-1.5c-0.2,0-0.5,0.3-0.6,0.4c0.1-0.3,0.4-0.4,0.5-0.8c-0.3,0.4-0.6,0.8-0.7,1.2c0,0.1-0.1,0.2-0.1,0.2
									c0,0-0.1,0.5,0-0.2l0.2-0.9c-0.2,0.9,0,0.2,0.3-0.4c-0.2,0.1,0-0.2,0.1-0.8c-0.2,0-0.4,1-0.5,1.6c0-0.3-0.2-0.5-0.3,0.3
									l0-1.1l-0.2,0.3l0.1-1.3c-0.5-0.7,0,1.9-0.4,1.2l-0.2-0.9c-0.2,0.4,0.2,2-0.3,1c0,0.6,0.6,1.2,0.3,1.5
									c-0.2-0.5-0.4-0.8-0.6-0.9c0,0.4,0.5,1,0.5,0.9c-0.3,0.5-1.7-2.9-1.8-1.4c0.5,0.5,0.7,1.7,1.2,1.4c0.1,0.6-1.1-1-0.8,0.1
									l-0.5-1.1c-0.1,0,0,0.5,0,0.6l-0.5-0.8c0.6,1.5-1.1-0.1,0,1.7c-0.9-1.4-0.2,0.3-0.7-0.2c-0.5-1.1,0.8-0.6-0.1-1.9
									c-0.4-0.3-0.1,0.4-0.5,0.2c0-0.3-0.1-0.7-0.3-1c-1-0.3-0.2,1.4-0.2,1.9l0.3-0.7c0.9,1.2-0.1,0.4,0.6,1.4
									c-0.8-0.5-0.2,0.6-0.7,0.4c0,0-0.1-0.2,0-0.2c-0.4,0.5-2.4-1.1-2.6-0.9c-0.4,0.1-0.1,1,0.5,1.3c0.2,0.4,0.3-1,1.5,0.7
									c-2.1-1.3,0.2,1.1-1.5,0.8c-0.5-0.8-1.2-0.6-1.5-1.2c-0.1,0.5,0.2,0.7,0.6,1.2L7,61.8c1.1,1.3,1.1,0.9,1.6,2
									c-0.4-0.5-1.1-0.2-1.4-0.6c-0.1,0.2,0,0.5,0.3,0.8l-0.1-0.1c0,0.8-1.2,0.2-0.9,1.5l0.4,0.1c0.4,1.7-1,3.1-1.5,4.5L6,69.7
									c-0.3,0-0.1,1.2-0.9,1.2c0-0.1,0-0.3,0.1-0.4c-0.4-0.3-1.1-0.6-1.4-0.4l0.5,0.6l-0.5-0.3c-0.3,0.4,0.9,0.6,0.6,1
									c-1.8-1.1-1.7,1.6-3.4,0.4c0.8,1.4,0.9-0.5,1.6,0.8c-0.3-0.1-0.5-0.2-0.9-0.1l0.7,0.6c-1.6,0.7-2.5,0.4-3.4,1.4l-0.1-0.2
									c-0.6,0-0.7,0.2-0.4,1c-0.3-0.3-0.2-0.7-0.6-0.9c0.7,2.4-2.3-0.6-1.8,1.1c-1-1.6-2.8-2.6-3.2-4.1l-0.1,0.4
									c-0.6-1.1,0.7-0.5,0.2-1.7l1.5,0.6c-0.3-0.4-0.6-1-0.8-1.1c0.2-0.1,0.3-0.3-0.3-0.7c3.6,1.3,3.3-2.3,5.6-2.7
									c0-0.2-0.4-0.4-0.7-0.5c1.2,0.5-0.3-0.6-0.3-0.9l1.7,0.6c-0.3-0.5-0.8-0.6-1.1-0.9c0.3-0.9,2-1,1.5-2.1
									c0.7,0,1.2,0.7,1.6,0.4c-1.8-0.4-0.3-1.2-1.6-1.4c1.9,0.3,1.2-1.4,3.4-0.1c0.4-0.4-0.8-0.9-1.1-0.9c0.4-0.5,0.6-1,0.3-1.8
									c0.7,0.1,1.3-2.9,3.2-1.9c-1.2-0.6-0.5-0.5-0.6-1.1l-1.1-0.5l0.7-0.6c0.1-0.2,0.1-0.2,0.2-0.1C5.3,54.5,5.6,55,6,55
									c0.5-0.3,0.1-0.8,0-1.5l-0.2-0.1l0.3-0.4c0.2-0.2-0.1,1.5,1,1.4c-0.2-0.2-0.7-1.8,0.1-1.3c-0.4,0.3,0.1,0.9,0.4,1l0.6-0.3
									l-1-1c1.8-1.2,4.3-1.3,6.6-1.8c0.1,1.2,1.8,0,1.6,1.8l-0.1-0.2c-0.5,0.2,0.2,1.5,0.5,1.2c-0.4-0.6,1-1.9-0.2-2.1
									c0.3-0.3,0.7-0.6,1.1-0.8c1.3-3.4,3.3,1.2,4.3,0.8c-0.1,0.1-0.3,0.2-0.3,0.3c1.6-0.5,1.6,2.2,2.1,1.9l-0.5,0.8
									c0.9-0.2,1.4-0.3,1.9,0c0.2,0.1,0.4,0.3,0.5,0.6l0.3,0.7c0,0.2,0.1,0.2,0.1,0.6l0.1,0.5l0,0.2l0,0.1
									c-0.2,0.5,0.6-0.8-0.6,2.2c1.1-3.5,0.1-1.7,0.2-2.3c-0.1,0-0.1,0-0.2,0.1c0,0.1,0,0-0.1,0.2c0,0.1,0,0.1,0,0.3
									c0,0.1,0,0.2-0.1,0.5c-0.1,0,0,1.9-2.9,2.1c-3.3-1.5-1.7-1.6-2.2-1.7c0-0.1,0-0.2-0.1-0.2c0,1.6-1.7-0.1-1.6-1.1l0.3,0
									c-0.1-0.6-0.3-1.3-0.3-1.8c2.9,0.3-1.4-3.1,2-2.6c-0.8-0.5-0.7-1.6-0.9-2.1l0.4,0.1c-1.2-1.2,1.1-1.1,1.2-1.5
									c-0.2-0.5-0.7-0.6-1.2-0.8c1.4,0.1-0.2-2.4,0.5-2.3c0.4-0.4,1,0.5,1.7,0.8c0.2-0.8-2.3-1.6-0.6-1.7c0,0.2,0,0.4,0.1,0.5
									c0.5-0.2,3.5,1.6,3.2,0.9l-0.6-0.2c-0.1-1.1,2.8,0.7,1.4-0.8l-0.7-0.7c1.6,0.2,0.1-0.6,1.6-0.5l0.1,0.1
									c0.2-0.4,1.2,0.3,0.3-1L26.2,44c0.3-0.4,0.5-0.4,0.9-0.7c0-0.2,0-0.5,0.3-0.3c-0.8-1,0.5-1.2,0.7-1.3
									c-0.2,0.4,0.3,0.7,0.8,1c-0.5-0.9-0.5-1.1,0.3-0.8c-1.1-1.1-2-2.5-1.9-2.8c0.2,0.2,0.2,0.3,0.4,0.6c0.2,0.2,0-0.1,0-0.2
									c0.3,0.2,0.4,0.5,0.8,0.8c-1-1.2,0.2-0.4,0-0.9c0.3,0.3,0.6,0.5,1.1,0.7C28,39.1,31,40.4,29,39.4c1.6-0.1,0.4-0.8,1.7-1.2
									c0.6-0.3-0.4-0.1-0.5-0.1l0.7-0.4c-1.3,0.6-1,0.6-0.3-0.2c-0.3,0.3-0.2,0.3,0.1-0.2c0-0.2,0.2-0.3,0.2-0.5l0-0.1l0-0.2
									l0-0.1l0,0v-0.2c0,0-0.3,3.1-0.3,1.2h0l0,0h0h0l0,0.4l0,0.6h0.1c-0.2,0-0.4-0.1-0.6-0.2c0.2,0,0.1-0.1,0.1-0.4
									c0.1,2-3.1,1.4-4.8,0.2c0.5-1.8-1.7-3.9,0.1-4c-0.2-0.2-0.4-0.5-0.5-0.9c-0.8,0.2-1.7,0.2-1.2-0.5l0-0.2l1.2,0
									c-0.1-0.4,0-0.8,0.1-1.1c-0.1,0.1-0.3,0.1-0.6,0.2l0.6-0.3l0.1-0.1l0,0.1c0.3-0.1,0.5-0.3,0.4-0.7c1.8-0.1-0.5-3.1,1.8-2.6
									c-0.3,0-0.5,0.1-0.2,0.4c0.4-0.7,2-0.5,1.8-1.3l-0.7-0.6c0.1-0.7,0.2-1.3,0.6-1.6L28,24.1c0.8-0.2,0.7-2.5,2.5-1.3
									c-0.4-0.7,0.9-0.5,1-0.9l0.6,0.5c0.5-0.1,0.6-0.6,0.7-0.9c1.8,0.6,1.5-1.2,2.3-1.7l0.1,0.2l0.4-1c0.2,0.7-0.2-0.5,0.2-0.5
									c0-0.5,0.5-0.6,1.1-0.4l0.5-0.3c-0.2,0.8,0.7,0.9,1.2,1.6l-0.1-0.8c0.4,0.3,0.2,0.7,0.5,0.7c-0.1-0.5,0.5-0.9,0.2-1.8
									c-0.2-0.2-0.3-0.3-0.5-0.4c0,0.1,0,0.1,0,0l0,0l0,0l-0.1-0.4c0.5-0.1,0.1-0.3-0.1-0.6c1.2,0.9,0.9-0.1,2.1,1.1
									c-1.5-1.3,1-0.6-0.3-1.9c1.1,1,0.3-0.1,1.1,0.8c-0.7,0-0.4,1.3-0.4,2.1l0.8,0.5c0.7,1.5-1.1,0-1,0.6c-0.1-0.4,0.4-0.3,0.6,0
									l-0.8-1c-0.8-0.1-0.6,1-0.6,1.7c0.5,0.1,0,0.9,0.8,1.4l0.2-0.3c0.4,0.3,0.3,0.8,0.4,1.1c-1.3-0.2-2.2,1.4-3,0.9
									c0.3,0.1,0.5-0.3,0.4-0.7l-0.7-0.1c0.3-0.3,1.1,0.5,1.3-0.2c-0.5-0.6-0.9-1.7-1.8-2.3c-1.6-0.3,0.5,2.1-0.6,2.7
									c0.1,0.3-0.6-1.2-0.8-0.4c-0.2,1.2,0.5,2.9,1.6,4.2c-0.1-0.6-0.2-1.8,0.7-0.9c0.1,0.6-0.2,1.2,0.3,1.8
									c-1.2-0.9,0.2-0.7-0.9-1.3c-0.2,0.2,0.1,0.6,0.1,0.8c-0.3-0.5-0.8-0.6-1.1-0.8c-0.6,0.5-1.3,0.3-2,0.8
									c-0.2-0.1-0.6-0.4-0.8-0.7c-0.1,0.6,1,2.5,1.8,3c-0.3,0.4-0.8-0.1-0.7,0.4c1.3,0.5-0.2-0.1,0.7,0.9
									c-0.1,0.4-0.6-0.4-0.9-0.5c0.1,0.1,0.3,0.6,0.6,0.8c-0.9-0.5-1.6-2.2-2.7-2.8c-0.7-0.4-2.3-0.6-2.5-0.6
									c0.7,0.9,4.4,4,5.7,4.8c0.6,0.5-0.8-0.3-1-0.2c-1.3-0.5,0.3,1.1-0.3,1.1l-0.4-0.7c-0.3-0.2-0.3,0.6,0,0.9
									c-0.4-0.2-1.7-1.6-2.2-1.8c-0.7,0.5,1,2.4,2.2,3.1c-0.3-0.5-0.4-1-0.6-1.6c0.9,0.6,0.5,1.2,1.6,2l-0.7,0.4
									c0-0.1-0.1-0.5-0.7-0.7c-0.1,0.3-0.3,0-0.8,0c-1.1-1-3.6-3.9-4.7-5.2l0.2,0.9L27.8,30c0.2,1.3,3.7,4.1,4.7,4.6
									c-0.3,0-2.5-1-2.9-1.3c-0.6,0.6,3.1,2.3,2.6,0.5c0.3,0.2,0.4,0.7,0.6,0.8c0.6-0.5-1.3-2.7-1-2.6c-1.1,0-1.7,1.5-1.7,1.9
									c0.4-0.7,0.2-1.5,0.2-2.3c0,0.2-0.2,2.2-0.3,2.5c0.3,0.1,0.3-2.2,0.3-2.5c-0.3,1.4,1.2,0.7,1.4,2.5c0.4,0,0.9-1.9,0.3-2.3
									c1.8,0,1.8,0.7,2.2,1.2c-1.8-0.4-2.8,3.3-3.9,4.3c1.2-1.6,3.2-2.2,5.4-2.3c-0.4,0.1-2.1,0.8-2.2,0.9c1.7-0.9,2.9,2,2.5,3.4
									l0-0.2c-0.6-0.2-1.1,0.7-0.6,1.2c-0.3-0.1-0.2-0.2-0.2-0.4c-1.4,0.4,2.4,1.7,0.6,2.1c0.5-0.7-0.2-1.1-0.9-1.2
									c0.5,0.8-0.8,1.7,1.2,2.3c-0.6,0.2-0.5,0.6-1.4,0.1c0.1,0.7,0.1,1.2,0.2,1.9c-0.1-0.2-0.5-0.6-0.9-0.4
									c0.8-0.5-0.4-2,0.9-1.8c-1.1-0.6-1.8-0.7-2.6-1.5c0.1,1.2,1.2,3,1.6,4.8c-0.6,0.2-0.9,0.1-1.4,0.1l0.4,0.4l-1.1-0.9
									c0.1,0.3,0.3,0.6,0.2,0.5c-0.1-0.1-0.2-0.2-0.3-0.4c0,0.1,0,0.3,0.1,0.4c-0.5-0.5-1-1.3-1.4-2l0.7,0.4
									c-0.3-0.7-0.8-1.3-1.3-1.5l0.1,0.3c-0.3-0.5-0.5-0.8-0.7-0.9l0,1c0.2,0.1,0.5,0.3,1,0.6c0.3,1,0.7,2.2,1.6,2.7l-1-0.3
									c0.4,1.5,0.3,1.2,0.4,2.5c-0.4-0.4-0.5-0.8-0.8-1c0.6,1.6-2.3-0.6-1.4,0.6c-0.1,0.5,0.7,1.1,0.7,1.5
									c-0.1-0.1-0.3-0.4-0.4-0.4l0.4,1c-0.3-0.2-0.3-0.7-0.8-0.8c0.1,1,0.3,1.5-0.4,1.5c-0.2,0.6,1.6,1.2,1.2,1.4
									c-0.7-0.5-1.4-1.2-1.7-1c0.3,0.5,0.8,0.9,1,1.3l-1-0.8c-0.1,0.2,0,0.5-0.8,0c0.3,0.5,0.2,0.5-0.1,0.5
									c0.4,0.7,2.3,1.3,2.7,1.5c-1-0.3-0.6,0.2-2-0.5l-0.1-0.5c-1.7-0.2,1.2,1.5-1.3,0.4c0.2-0.2-0.2-0.8-0.9-1l0.4,0.7
									c-0.3-0.1-0.1-0.3-0.5-0.4c0.2,0.2,0.6,0.8,1,1.1l-0.1,0l-0.1,0.6c0.1-0.1-0.3-0.3-0.4-0.2l0.4,0.6
									c-0.2-0.2-0.7-0.3-0.9-0.2c-0.5,0.3,2.6,1.3,1.3,1.1c0,0-0.1-0.1-0.1-0.1l-0.6,0c2.6,0.7,0.2,0.5,2.9,0.5
									c-1.1-0.3-0.7,0.1-1.9,0H26C26,56.5,26.1,56.2,25.8,56.1z M27,53c0.5,0.2,0.1-0.3,0-0.4C26.6,52.5,26.1,52.3,27,53z
									 M31.5,44.8c0.4,0.1,0.6,0.2,0.5-0.1C31.7,44.6,31.6,44.6,31.5,44.8z M36.7,18.7L36.7,18.7C36.4,18.6,36.2,18.6,36.7,18.7z
									 M37,18.6c0.2,0,0.3-0.1,0.2-0.4c0.1,0.1,0.2,0.2,0.2,0.3C37.4,18.9,37.2,18.8,37,18.6z M4.8,55l-0.3-0.1
									C4.6,55.2,4.7,55.4,4.8,55z"/>
								<path class="st5" d="M32,46.4l-0.4-0.4C31.7,46.2,31.8,46.4,32,46.4z"/>
								<polygon class="st5" points="16.6,60.7 16.6,60.7 16.4,60.8 								"/>
								<path class="st5" d="M35.8,30.7c-0.2,0-0.3-0.1-0.5-0.2C35.5,30.7,35.6,30.8,35.8,30.7z"/>
								<path class="st5" d="M39.3,15.3l-0.2,0.4c0.1-0.1,0.3,0,0.5,0.1C39.5,15.6,39.2,15.4,39.3,15.3z"/>
								<path class="st5" d="M45.4,18.6c0-0.1,0.1-0.1,0.1-0.2l-0.2-0.4C45,18.2,45.1,18.6,45.4,18.6z"/>
								<path class="st5" d="M41.4,17.8c0.5,0.7,0.5,0.3,0.7,0l0,0C41.5,16.9,41.4,17.3,41.4,17.8z"/>
								<path class="st5" d="M42.1,17.8c0.1-0.1,0.1-0.1,0.2-0.2C42.1,17.2,42.2,17.6,42.1,17.8z"/>
								<path class="st5" d="M37.8,17.7c0.2,0.1-0.5-0.9-0.3-0.7C37,16.1,37.5,18.6,37.8,17.7z"/>
								<polygon class="st5" points="43,20 42.4,19.2 42.7,19.9 								"/>
								<path class="st5" d="M40.8,20.5l0.5,0c-0.1-0.1-0.1-0.3-0.1-0.4C41,20.3,40.6,20.3,40.8,20.5z"/>
								<path class="st5" d="M41.2,20.1c0.1-0.1,0.2-0.2,0.2-0.3C41.4,19.9,41.2,20,41.2,20.1z"/>
								<polygon class="st5" points="42.7,20.5 42.4,20.4 42.1,20.5 								"/>
								<path class="st5" d="M37,23.1l-0.2,0.5c0.2,0.3,0.4,0.4,0.5,0.2C37.2,23.5,37.2,23.3,37,23.1z"/>
								<path class="st5" d="M39.8,24.4c-0.2-0.1-0.4-0.3-0.6-0.5l0.7,1L39.8,24.4z"/>
								<path class="st5" d="M38.9,25.4c0.2,0.3,0.1,1.2,0.5,0.8C39.2,25.9,39.4,25.4,38.9,25.4z"/>
								<polygon class="st5" points="32.8,28.9 32.9,28.8 31.4,27.4 								"/>
								<path class="st5" d="M34.2,35.2c0.4,0.3-1.2-0.4-0.6-0.2c-0.4-0.2-0.5-0.1-0.9-0.3C33.1,35.1,33,34.6,34.2,35.2z"/>
								<path class="st5" d="M32.7,34.7l-0.3-0.2L32.7,34.7z"/>
								<polygon class="st5" points="-9.2,69.9 -9.6,69.7 -9.1,70.2 								"/>
								<path class="st5" d="M-8.9,71.5l-0.7-1.1l0.5,1.1C-9.1,71.5-9.1,71.3-8.9,71.5z"/>
								<path class="st5" d="M29.5,53.6l-0.2-0.2c-0.3-0.2-0.3-0.2-0.4-0.1L29.5,53.6z"/>
								<polygon class="st5" points="27.2,55.6 27.2,55.6 26.1,55.3 								"/>
								<path class="st5" d="M28.3,55.1c0.1,0.2-0.1,0.5,0,0.6C28.4,55.3,26.9,55.5,28.3,55.1z"/>
							</g>
						</g>
					</g>
					<g>
						<path class="st8" d="M12.3,74.6c5.6-3.5,9.5-7.3,10.9-14c1.5-7.1,9.9-14.2,15.7-9.2c5.7,4.8,3.2,7.2,2.3,7.5
							c-1.1,0.3-3.5-1.7-1-7.1c2.6-5.6,4.7-5.8,9.4-10.1c4.8-4.5,0.2-9.4-3.4-8.2c-3.9,1.3-5.7,0.5-1.4-5
							c7.2-9.1,31.8-22.2,31.4-8.3"/>
						<g>
							<path class="st4" d="M12.3,74.6c5.6-3.5,9.5-7.3,10.9-14c1.5-7.1,9.9-14.2,15.7-9.2c5.7,4.8,3.2,7.2,2.3,7.5
								c-1.1,0.3-3.5-1.7-1-7.1c2.6-5.6,4.7-5.8,9.4-10.1c4.8-4.5,0.2-9.4-3.4-8.2c-3.9,1.3-5.7,0.5-1.4-5
								c7.2-9.1,31.8-22.2,31.4-8.3"/>
							<g>
								<path class="st5" d="M80.9,19.8c-0.1,0.3,0.8,0.2,0.9,0.3C81.7,19.6,80.7,19.9,80.9,19.8z"/>
								<polygon class="st5" points="78.1,15.3 78.4,15.3 77.4,15 								"/>
								<path class="st5" d="M74.7,11.9c-0.3,1.3,1.6,0.6,2,1.8L76.5,14l1.2-0.4C76.6,12.7,75.1,12.4,74.7,11.9z"/>
								<path class="st5" d="M72.9,8.1c0.1,0.6-0.7,0.4,0.6,0.3l-0.1-0.2C73.3,8.2,73.2,8.2,72.9,8.1z"/>
								<path class="st5" d="M73.4,8.2C74,8.3,73.2,7.7,73.4,8.2L73.4,8.2z"/>
								<path class="st5" d="M70.9,8.2l0.8-0.4c-0.1-0.3-0.8-0.5-0.5-0.7C70.3,7.3,70.5,7.7,70.9,8.2z"/>
								<path class="st5" d="M70.2,9.2L70.5,9C70.5,8.9,70.4,8.8,70.2,9.2z"/>
								<path class="st5" d="M71.3,8.7L70.5,9c0.1,0.2,0.1,0.7,0.3-0.1C70.8,9.3,71,8.9,71.3,8.7z"/>
								<path class="st5" d="M71.7,8.9c0.4,0.4,0.8,0.6,0.1,1C73,9.9,73.1,8.9,71.7,8.9z"/>
								<path class="st5" d="M73.8,13.1l0.2,0.5l0.5-0.3C74.3,13.5,74,12.7,73.8,13.1z"/>
								<path class="st5" d="M67,7.8c0,0.3,0.3,0.8,0.4,1.1l0.4-0.4C67.5,8.3,67.1,8.2,67,7.8z"/>
								<path class="st5" d="M67.4,8.9l-0.5,0.6C67.4,9.5,67.5,9.2,67.4,8.9z"/>
								<path class="st5" d="M70.2,10.8c0.3-0.4,0.7-0.7,1.1-1c-0.5,0.3-0.9,0.6-1.3,1.1L70.2,10.8z"/>
								<polygon class="st5" points="64.7,8.2 64.9,7.5 64.5,8.6 								"/>
								<path class="st5" d="M63.3,8.7c0.1-0.6-0.6-0.8-0.5-1.3c-0.4,0.2-0.5,0.8-0.7,1.3C62.4,8.5,62.8,8.4,63.3,8.7z"/>
								<path class="st5" d="M61.9,9.6c0.1-0.2,0.2-0.5,0.3-0.8C62.1,9,62,9.2,61.9,9.6z"/>
								<path class="st5" d="M65.9,9.6c-0.1-0.2-0.3-0.6-0.6-0.7l0.4,0.8L65.9,9.6z"/>
								<path class="st5" d="M65.7,9.7L65.7,9.7c-0.3,0-0.4,0-0.5,0C65.3,9.7,65.4,9.7,65.7,9.7z"/>
								<path class="st5" d="M66,9.6L66,9.6C66,9.7,66,9.7,66,9.6z"/>
								<path class="st5" d="M68.6,10.2c-0.3,0.5-0.9,1.1-0.2,1.7C68.6,11.3,68.1,11,68.6,10.2z"/>
								<path class="st5" d="M66.5,10.6l0.6,0.1c-0.1-0.2-0.2-0.5-0.1-0.8L66.5,10.6z"/>
								<polygon class="st5" points="66.1,10.9 66.3,10.6 66.1,10.6 								"/>
								<path class="st5" d="M63.1,10c-0.1,0.4-0.4,0.5-0.6,0.7c0.4,0.1,0.7,0,1-0.1C63.5,10.4,63.5,9.9,63.1,10z"/>
								<path class="st5" d="M64.4,9.9L64.4,9.9C64.4,10,64.4,10,64.4,9.9z"/>
								<polygon class="st5" points="59.8,11.8 59.9,11.9 59.8,11.8 								"/>
								<path class="st5" d="M63.6,10.8c0.3,0.1,0.4-0.2,0.4-0.5l-0.5,0.3C63.5,10.8,63.5,10.9,63.6,10.8z"/>
								<path class="st5" d="M61.2,10.2l0.6,0.3C61.6,10.3,61.2,10,61.2,10.2z"/>
								<path class="st5" d="M64.2,9.7L64.2,9.7C64.1,9.5,64.1,9.6,64.2,9.7z"/>
								<path class="st5" d="M64.2,9.7c-0.1,0.2-0.1,0.4-0.2,0.6l0.3-0.4L64.2,9.7z"/>
								<path class="st5" d="M61.2,17.1c-0.3-0.7-0.1-1.6,0.7-1c0.2-0.7-1.1-3-2.1-4.2c0.1,0.3,0.2,0.6-0.1,1.3
									c0.4,0.3,1.5,0.5,1.3,1.3c-0.5,0.6-0.6,0-1.1-0.3c0.7,0.8-0.2,1.6,0.6,2.9l0.3-0.7C61,16.6,61,17,61.2,17.1z"/>
								<path class="st5" d="M60.8,11.6l0.2-0.2c-0.3,0-0.6-0.3-1.1-0.7c-0.2,0.5-0.2,0.8-0.1,1.1l1.1-0.3L60.8,11.6z"/>
								<path class="st5" d="M62,11c0.1,0.9-0.2,1.4,0.4,2.2c0.6-0.3,0.2-0.8,0.4-1.3C61.8,12.4,62.9,11.3,62,11
									c0.2-0.1,0.4-0.2,0.5-0.3l-0.7-0.2l0,0l0,0l0,0c0.1,0.1,0.1,0.1,0,0.1l0,0L62,11c-0.4-0.1-0.1-0.2-0.1-0.3l0-0.1l0,0
									L61,11.4C61.3,11.4,61.5,11.3,62,11z"/>
								<path class="st5" d="M68.1,13.8l-0.1-0.2C68,13.7,68,13.8,68.1,13.8z"/>
								<path class="st5" d="M67.6,13.4c0-0.1,0-0.5,0.3-0.5c0.2,0.2,0.1,0.4,0.1,0.7c0.1-0.2,0.4-0.7-0.1-1l-0.1,0.1
									c-0.4-0.2-1.2-1.1-1.1-1.3C67,12.2,67.2,12.7,67.6,13.4z"/>
								<path class="st5" d="M64.9,12.3L64.2,13l0.6,0.6l-0.2-0.4C65.2,13.1,65,12.6,64.9,12.3z"/>
								<polygon class="st5" points="59.5,11.4 59.2,10.6 59.3,11.9 								"/>
								<polygon class="st5" points="58.5,12 58.2,11.3 58.1,11.8 								"/>
								<path class="st5" d="M43.9,55l0.2,0.2L43.9,55z"/>
								<path class="st5" d="M44.3,54L44,53.8C44.2,53.9,44.3,54,44.3,54z"/>
								<path class="st5" d="M37.4,34.2c-0.9,1.8,1.4,5.3,1.7,4.2L39,37.2C37.5,36.1,37.4,35.1,37.4,34.2z"/>
								<polygon class="st5" points="49.2,42 49.4,42.2 49,41.4 								"/>
								<path class="st5" d="M51.4,44.9l-0.7-0.1C50.9,44.8,51.1,44.9,51.4,44.9z"/>
								<path class="st5" d="M36.7,56.9l-0.8,0.4C35.8,56.9,36.2,57,36.7,56.9z"/>
								<path class="st5" d="M48.7,18.2c-0.5-0.1-0.8,0-1,0.1C48.4,18.4,49.1,18.8,48.7,18.2z"/>
								<path class="st5" d="M35.3,51.5c0.1,0.2,0.2,0.4,0.4,0.4C35.7,51.7,35.5,51.6,35.3,51.5z"/>
								<path class="st5" d="M47,18.8l0.3,0.1c0.1-0.3,0.2-0.5,0.5-0.6C47.3,18.1,46.9,18.1,47,18.8z"/>
								<path class="st5" d="M25.5,68.3l-0.1,0C25.5,68.4,25.5,68.3,25.5,68.3z"/>
								<path class="st5" d="M12.4,69.9c0-0.1,0.1-0.2,0.2-0.3C12.6,69.6,12.5,69.7,12.4,69.9z"/>
								<path class="st5" d="M54.2,13.8C54.4,13.6,54.2,13.7,54.2,13.8L54.2,13.8z"/>
								<path class="st5" d="M56.9,16.2c0,0.1,0,0.2,0.1,0.4C56.9,16.4,56.9,16.3,56.9,16.2z"/>
								<path class="st5" d="M48.7,24.4L48.7,24.4C48.8,24.5,48.8,24.5,48.7,24.4z"/>
								<path class="st5" d="M54.7,13.9l-0.4-0.1C54.4,13.9,54.5,13.9,54.7,13.9z"/>
								<path class="st5" d="M54.5,13.6l0.2,0C54.7,13.4,54.6,13.4,54.5,13.6z"/>
								<path class="st5" d="M54,14c0.1-0.1,0.2-0.1,0.4-0.1l-0.1-0.1C54.2,13.8,54.1,13.9,54,14z"/>
								<path class="st5" d="M31.5,53.3L31.5,53.3C31.4,53.6,31.5,53.5,31.5,53.3z"/>
								<polygon class="st5" points="47.7,29.1 47.7,29.2 47.8,29.2 								"/>
								<path class="st5" d="M49.4,28.8c-0.9,0.9-1.2,0.7-1.7,0.4c0.1,0.9,0.2,1.7,0.2,2.6C48.3,30.7,48.8,29.8,49.4,28.8z"/>
								<path class="st5" d="M43.6,55.5c-1.1,0.4,0.1-0.8-0.3-1.9c-0.7,0.1-0.7,1.8-1.8,0.9c-4.1-0.6,1.4-2.2-1.8-2.3
									c-0.8,0.7-1,1.3-1.2,2c-2,0.2-1.7,1.9-1.4,2.4l-0.4,0.2c0.7,0.5-1.2,1-0.7,0.9c0.3-0.1,0.7-0.6,0.9-0.8l-1,0.2
									c0.4-0.1,1-0.6,1.7-1C37.4,55.8,37,56,36.8,56c0.3-0.1,0.5-0.2,0.7-0.6c-0.5,0.1-1.1,0.2-1.5,0.4c-0.1,0.1,0,0.2,0,0.3
									c-0.2-0.1-0.8,0-0.5-0.7l0.7-0.6c-0.4,0.8,0.2,0.4,0.7,0c-0.5-0.3,0-0.2,0.2-0.9c-0.3-0.3-1.2,0.4-1.5,1
									c-0.1-0.5,0-0.6-0.6-0.1l0.6-0.9c-0.1,0.1-0.2,0.1-0.4,0.2c0.3-0.4,0.5-0.7,0.8-1c-0.2-1-1,1.6-1.1,0.8l0.3-0.9
									c-0.4,0.3-0.7,1.9-0.6,0.7c-0.2,0.5-0.2,1.4-0.3,1.5c0.1-0.5,0-0.8-0.1-1c-0.1,0.4,0,1.2,0.1,1c-0.1,0.4-0.5-3.3-1-1.9
									c0.4,0.6,0.3,1.8,0.7,1.7c0,0.5-0.7-1.2-0.7-0.2l-0.2-1.2c-0.1,0-0.1,0.5-0.1,0.6l-0.3-0.9c0.3,1.7-1.2-0.4-0.3,1.7
									c-0.7-1.6-0.2,0.3-0.7-0.2c-0.3-1.2,0.9-0.5,0.3-1.9c-0.4-0.4-0.2,0.4-0.6,0.1c0-0.3,0-0.8-0.1-1.1c-1.1-0.4-0.6,1.4-0.6,2
									l0.4-0.7c0.8,1.4-0.1,0.4,0.4,1.5c-0.8-0.5-0.2,0.7-0.8,0.4c0.1,0,0-0.2,0-0.2c-0.5,0.5-2.5-1.2-2.8-0.9
									c-0.4,0.2-0.2,1.2,0.4,1.5c0.1,0.5,0.4-1.2,1.6,0.6c-2.1-1.2,0.1,1.2-1.8,1c-0.4-0.9-1.3-0.5-1.5-1.2
									c-0.2,0.6,0.1,0.8,0.6,1.3L26.4,57c1.1,1.4,1.2,0.9,1.5,2.1c-0.4-0.5-1.1-0.1-1.5-0.6c-0.2,0.2-0.1,0.6,0.3,0.9l-0.1-0.1
									c0,1-1.1,0.5-0.6,1.5l0.5,0c0.8,1.8-0.6,3.9-0.9,5.8l0.6-0.5c-0.2,0.1,0.1,1.5-0.8,1.7c0-0.1-0.1-0.4,0.1-0.5
									c-0.5-0.2-1.2-0.4-1.5,0l0.6,0.5l-0.6-0.1c-0.3,0.6,1.1,0.4,0.7,1c-2-0.8-2,2.3-3.8,1.5c0.9,1.4,1-0.8,1.8,0.5
									c-0.3,0-0.6-0.1-1,0.1l0.8,0.5c-1.8,1.2-2.9,1.1-4,2.4l-0.1-0.2c-0.7,0.1-0.8,0.4-0.5,1.2c-0.4-0.3-0.2-0.7-0.6-0.9
									c0.6,2.6-2.7-0.2-2.2,1.5c-1-1.6-3-2.5-3.4-4l-0.2,0.4c-0.6-1.1,0.9-0.7,0.4-1.9l1.7,0.4c-0.3-0.4-0.6-1-0.8-1.1
									c0.2-0.2,0.3-0.4-0.3-0.7c4.2,0.9,3.8-3.1,6.3-4.1c0-0.2-0.5-0.3-0.7-0.4c1.3,0.2-0.4-0.7-0.4-0.9l1.9,0.2
									c-0.4-0.5-1-0.5-1.3-0.7c0.1-1.1,2.1-1.8,1.3-3c0.7-0.2,1.4,0.4,1.7-0.1c-2,0.4-0.4-2-1.7-1.8c2,0,1.2-2,3.6-0.7
									c0.4-0.5-0.8-1-1.1-0.9C22,55.6,22.3,55,22,54c0.6-0.1,1.8-3.6,3.8-2.6c-1.3-0.6-0.5-0.5-0.5-1.3l-1.1-0.5l1-0.7
									c0.1-0.2,0.2-0.2,0.3-0.2c0.2-0.1,0.4,0.5,1,0.5c0.7-0.4,0.3-0.9,0.3-1.7l-0.2-0.1L27,47c0.3-0.2-0.6,1.7,0.8,1.5
									c-0.2-0.3-0.3-2,0.5-1.5c-0.6,0.3-0.1,0.9,0.2,1.1l0.8-0.4l-0.9-1.2c2.7-1.2,6.3-1,9.4,0.2c-0.5,1.1,2,1.1,0.7,2.6l0-0.2
									c-0.6-0.2-0.6,1.4-0.2,1.4c-0.1-0.8,2-0.9,1-1.9c0.5,0,1.1,0,1.5,0c2.9-2.2,1.9,2,3.8,2.9c-0.2,0-0.4,0.1-0.5,0.1
									c2.1,0.7,0.9,4.4,1.3,4.8l-1,0.2c1.1,2.1,1.3,3.5-2.3,4.9c0-0.2,0.3-0.6-0.3-0.6c-0.5,1-3.1,1.9-4.8,0l0.3-0.2
									c-1-0.8-1.4-1.6-1.9-2.5c2.7-0.6-2.5-3.9,1.1-4.2c-0.8-0.4-0.9-1.9-1-2.4c0.1,0,0.3,0,0.4,0c-1.3-1.1,1.1-1.6,1.2-2.1
									C37,49.1,36.5,49,35.9,49c1.5-0.1-0.2-2.8,0.5-2.8c0.5-0.5,1.1,0.4,1.8,0.6c0.3-1-2.4-1.4-0.6-1.8c0,0.2-0.1,0.5,0.1,0.5
									c0.6-0.3,3.8,1.2,3.5,0.5l-0.6-0.1c0-1.3,3.1,0.4,1.7-1.2l-0.7-0.7c1.9,0.1,0.2-0.7,1.9-0.7l0.1,0.1
									c0.3-0.5,1.3,0.3,0.5-1.1l-0.3,0c0.5-0.5,0.6-0.5,1.1-0.8c0-0.2,0.1-0.5,0.3-0.4c-0.8-1,0.7-1.4,1-1.6
									c-0.3,0.5,0.3,0.7,0.7,1c-0.5-1-0.4-1.2,0.4-0.9c-1.1-1.2-2.3-2.5-2.2-2.6c0.2,0.2,0.2,0.3,0.5,0.5c0.3,0.2,0-0.1,0-0.2
									c0.3,0.2,0.4,0.4,0.9,0.7c-1.1-1.1,0.3-0.4-0.3-0.8c0.4,0.2,0.7,0.3,1.3,0.4c-1.7-0.5,1.7,0-0.6-0.4
									c1.4-0.2,0.1-0.4,0.7-1.5c0.3-0.6-0.5,0.2-0.5,0.2l0.3-0.7c-0.7,1.2-0.6,0.7-0.7,1.6c0-0.5,0.1-1.3-0.1-1.9
									c-0.1,0.6,0,1.1,0.1,1.6l-0.3-1.2c0.1,0.4-0.5,0.4-0.8,0.3c0.2-0.1,0-0.1,0-0.3c0.4,1.7-1.3,1.9-1.7,2.7
									c-0.3-1.5-2.1,0.4-2.3-1.3c-0.2,0.2-0.8,0.3-1.6-0.1c0.3,1,0.4,2.1-1.1,0.7L38.8,37c0-0.4,0.1-0.8,0.2-1.2
									c-1.2-1-1.4-2.4-1.5-3.3c-0.1,0.4-0.2,0.9-0.3,1.5c0-0.7,0.1-1.3,0.3-1.8c0-0.2,0-0.4,0-0.4c0,0,0,0.1,0,0.2
									c0.3-0.5,0.5-0.7,0.3-1.3c2-1.4-0.3-4.1,2.2-4.1c-0.3,0-0.5,0.2-0.3,0.4c0.5-0.9,2.2-0.9,2.1-1.8l-0.7-0.5
									c0.2-0.9,0.4-1.5,0.9-2L41.3,22c0.9-0.4,1.2-2.9,3-1.7c-0.4-0.7,1.1-0.6,1.3-1.1l0.6,0.5c0.6-0.2,0.8-0.7,0.9-1.1
									c2,0.6,1.9-1.4,2.9-1.9l0.1,0.2l0.6-1.1c0.1,0.7-0.1-0.5,0.3-0.5c0.1-0.5,0.7-0.7,1.3-0.5l0.6-0.3c-0.4,0.8,0.6,0.9,1.1,1.7
									l0-0.8c0.4,0.3,0.1,0.7,0.5,0.8c0-0.6,0.8-1,0.6-1.9c-0.1-0.2-0.3-0.3-0.5-0.4c0,0.1,0,0.1,0,0l-0.1,0l0,0l-0.1-0.4
									c0.6-0.1,0.2-0.3,0-0.7c1.2,0.9,1.1-0.1,2.3,1.2c-1.4-1.4,1.3-0.7,0.1-2.1c1,1.1,0.3-0.1,1.1,0.9c-0.8,0-0.8,1.4-1,2.2
									l0.8,0.5c0.4,1.6-1.3,0-1.3,0.6c0-0.4,0.6-0.3,0.8,0l-0.7-1c-0.9-0.1-0.9,1-1.1,1.8c0.6,0.1-0.1,0.9,0.6,1.5l0.2-0.3
									c0.4,0.3,0.2,0.8,0.2,1.2c-1.5-0.2-2.8,1.6-3.7,1c0.4,0.1,0.6-0.3,0.6-0.7l-0.7-0.1c0.4-0.3,1.2,0.4,1.6-0.3
									c-0.5-0.6-0.7-1.8-1.7-2.4C51,16.4,53,19,51.6,19.6c0,0.3-0.5-1.2-0.9-0.4c-0.4,1.3,0.1,3.1,1.1,4.5c0-0.6,0.1-1.9,0.9-1
									c0,0.6-0.4,1.3,0,2c-1.2-0.9,0.4-0.8-0.8-1.4c-0.2,0.2,0,0.6,0,0.9c-0.2-0.6-0.8-0.6-1.1-0.8c-0.8,0.6-1.5,0.4-2.4,1
									c-0.2-0.1-0.6-0.4-0.8-0.7c-0.2,0.6,0.8,2.7,1.5,3.2c-0.3,0.4-0.8,0-0.9,0.6c1.4,0.4-0.3,0,0.6,1c-0.2,0.4-0.6-0.4-1-0.4
									c0,0.2,0.2,0.6,0.5,0.9c-1-0.5-1.5-2.3-2.6-2.9c-0.7-0.4-2.5-0.4-2.7-0.4c0.7,1,4.4,4,5.7,4.8c0.6,0.5-0.9-0.3-1.1-0.2
									c-1.4-0.4,0.3,1.3-0.4,1.3L47,30.6c-0.3-0.1-0.4,0.7-0.1,1c-0.4-0.2-1.7-1.6-2.2-1.7c-0.8,0.7,1,2.6,2.3,3.1
									c-0.3-0.5-0.5-1-0.6-1.6c0.9,0.6,0.4,1.3,1.7,1.9c-0.2,0.1-0.5,0.4-0.6,0.3c-0.1,0.1-0.2-0.4-0.8-0.5
									c-0.1,0.3-0.2,0-0.7-0.1c-1.4-0.4-3.8-3.6-5-5l0.2,1.1l-0.7-0.1c0.1,1.6,3.9,4,5.2,3.9c-0.3-0.2-2.6-0.3-3.2-0.4
									c0,0.4,0.9,0.3,1.2-0.7c0-0.9,0-1.9-0.3-1.7l0.4-0.5c-0.6-0.3-0.3,0.2-0.3-0.2c0.1,0.6,0.5,2.1,0.4,2.5l0.2-2.3
									c0,0.3,0.5,2.1,0.5,2.4c0.4,0-0.1-2.3-0.3-2.5c0.8,1.2,0.7,0.4,1.9,1.9c0.3-0.2-0.3-2-0.7-2.2c0.9-0.7,1.6-0.5,2.1-0.3
									c-1.6,0.9-0.3,4.3-0.6,5.8c0.2-2,1.3-3.7,3.1-5.2c-0.3,0.3-1.1,1.9-1.2,2.1c0.7-1.8,4.1,0,4.6,1.8l-0.1-0.2
									c-0.6,0-0.5,1.4,0.3,1.7c-0.4,0-0.3-0.1-0.4-0.3c-0.9,1.2,3,0.7,1.6,2.3c0.1-1.2-0.6-1.2-1.3-1c0.7,0.7,0,2.6,2,2.4
									c-0.4,0.6-0.4,1-1.4,0.8c0.2,0.7,0.3,1.5,0.3,2.4c-0.1-0.3-0.6-0.6-1-0.2c0.8-1-0.7-2.5,0.7-2.7c-1.2-0.2-2-0.1-2.9-0.7
									c0.2,1.3,1.7,3.3,1.9,5.1c-0.6,0.3-1.2,0.5-1.8,0.7l0.3,0.4l-1.1-0.9c0.1,0.3,0.2,0.6,0.1,0.5c-0.1-0.1-0.2-0.2-0.3-0.4
									c0,0.1,0,0.3,0,0.5c-0.5-0.5-1-1.3-1.3-2l0.8,0.4c-0.3-0.7-0.8-1.3-1.3-1.5l0.1,0.3c-0.3-0.5-0.5-0.9-0.7-0.9l-0.2,1.1
									c0.2,0.1,0.6,0.3,1,0.5c0.2,1.1,0.5,2.4,1.5,2.7l-1.1-0.2c0.3,1.6,0.2,1.3,0.1,2.8c-0.4-0.3-0.4-0.8-0.8-1
									c0.4,1.7-2.5-0.4-1.7,0.8c-0.2,0.6,0.6,1.1,0.6,1.6c-0.1-0.1-0.3-0.4-0.4-0.4l0.4,1c-0.3-0.2-0.2-0.8-0.8-0.8
									c-0.1,1.1,0.1,1.6-0.6,1.6c-0.2,0.6,1.6,1.2,1.2,1.4c-0.7-0.5-1.5-1.1-1.8-0.9c0.3,0.5,0.9,0.9,1,1.3l-1-0.8
									c-0.1,0.3,0,0.6-0.9,0.1c0.3,0.5,0.1,0.6-0.1,0.6c0.4,0.7,2.4,1,2.9,1.3c-1-0.2-0.7,0.3-2.2-0.1l-0.1-0.6
									c-1.8,0.1,1.2,1.6-1.4,0.8c0.2-0.3-0.2-0.9-0.9-1.1l0.4,0.7c-0.3-0.1-0.1-0.4-0.5-0.3c0.2,0.3,0.6,0.8,1,1.1l-0.1,0
									l-0.1,0.8c0.1-0.1-0.3-0.3-0.4-0.2l0.5,0.6c-0.3-0.2-0.7-0.2-0.9-0.1c-0.5,0.5,2.7,0.9,1.4,0.9c0,0-0.1,0-0.1,0L43.6,55.5
									c2.6,0.1,0.2,0.1,2.4-1.6c-1.4-0.3-0.4,0.6-1.5,1.3c-0.3,0-0.6,0-0.9,0C43.6,55.4,43.8,55.4,43.6,55.5z M44.8,52.6
									c0.5,0.2,0.1-0.3,0-0.6C44.4,52,43.9,51.9,44.8,52.6z M50.9,42.7c0.4,0.1,0.7,0,0.6-0.4C51.1,42.4,50.9,42.5,50.9,42.7z
									 M52.4,15.8L52.4,15.8C52,15.8,51.9,15.7,52.4,15.8z M52.8,15.7c0.2,0,0.4-0.2,0.3-0.4c0.1,0.1,0.2,0.2,0.2,0.4
									C53.2,16,53,15.9,52.8,15.7z M26.1,49.4l-0.3-0.1C25.9,49.6,25.9,49.9,26.1,49.4z"/>
								<path class="st5" d="M51.2,44.5l-0.4-0.3C50.8,44.4,50.9,44.5,51.2,44.5z"/>
								<polygon class="st5" points="36.8,56.9 36.8,56.9 36.7,56.9 								"/>
								<path class="st5" d="M49.2,29.1c-0.2,0-0.4-0.1-0.5-0.2C48.8,29.1,49,29.2,49.2,29.1z"/>
								<path class="st5" d="M56.2,12.2l-0.4,0.5c0.2-0.2,0.4,0,0.6,0.1C56.3,12.5,56.1,12.3,56.2,12.2z"/>
								<path class="st5" d="M62.7,15.8c0-0.1,0.1-0.1,0.2-0.2l-0.2-0.4C62.4,15.3,62.3,15.8,62.7,15.8z"/>
								<path class="st5" d="M58.1,14.9c0.4,0.7,0.6,0.3,0.8,0l-0.1,0C58.4,13.8,58.3,14.4,58.1,14.9z"/>
								<path class="st5" d="M59,14.8c0.1-0.1,0.2-0.2,0.3-0.2C59.1,14.2,59.1,14.6,59,14.8z"/>
								<path class="st5" d="M53.9,14.7c0.3,0.1-0.4-1-0.2-0.7C53.3,13,53.3,15.7,53.9,14.7z"/>
								<polygon class="st5" points="59.5,17.1 59,16.3 59.2,17.1 								"/>
								<path class="st5" d="M56.9,17.7l0.6,0c-0.1-0.1-0.1-0.3,0-0.4C57.1,17.4,56.7,17.4,56.9,17.7z"/>
								<path class="st5" d="M57.4,17.3c0.2-0.1,0.3-0.2,0.3-0.3C57.6,17,57.5,17.1,57.4,17.3z"/>
								<polygon class="st5" points="59,17.5 58.8,17.3 58.4,17.4 								"/>
								<path class="st5" d="M51.8,20.6l-0.3,0.6c0.2,0.3,0.4,0.4,0.5,0.2C52,21.1,52.1,20.8,51.8,20.6z"/>
								<path class="st5" d="M54.8,21.9c-0.2-0.1-0.4-0.3-0.6-0.5l0.7,1L54.8,21.9z"/>
								<path class="st5" d="M53.6,23.1c0.1,0.3-0.1,1.3,0.4,0.8C53.9,23.6,54.2,23,53.6,23.1z"/>
								<polygon class="st5" points="46.2,27.4 46.3,27.2 44.8,25.9 								"/>
								<path class="st5" d="M46.4,29.8c2.1,2.6-0.5,1.1,0.6,3c-0.4,0.4-0.7-1.4-1.1-0.8C46.1,30.9,44.7,29.9,46.4,29.8z"/>
								<path class="st5" d="M45.9,32c0,0.2-0.1,0.4-0.2,0.5C45.8,32.2,45.9,32.1,45.9,32z"/>
								<polygon class="st5" points="10.6,69.8 10,69.7 10.6,70.1 								"/>
								<path class="st5" d="M10.8,71.5L10,70.4l0.4,1.1C10.5,71.5,10.5,71.3,10.8,71.5z"/>
								<path class="st5" d="M47.5,52.7l-0.2-0.2c-0.3-0.2-0.4-0.1-0.5,0L47.5,52.7z"/>
								<polygon class="st5" points="45.1,55.5 45.1,55.5 43.9,55.3 								"/>
								<path class="st5" d="M43.3,51.7c0.9,0.4,1.3,1,1.7,1.3C44.3,52.1,42.4,52.9,43.3,51.7z"/>
							</g>
						</g>
					</g>
					<g>
						<path class="st7" d="M31.8,74.6c6.3-4,10.5-8.4,11.2-16.8c0.7-8.5,10.5-17.1,17.1-9.9c6.6,7.2,2.6,10.9,0.6,11.7
							c-2.1,0.9-5.8-1.4-3-8c2.8-6.8,4.9-6.4,10.4-11.6c5.7-5.3-1.1-11-6.7-8.6c-5.7,2.4-8.6,1.9-3.4-4.8
							C65.9,16.6,97,1.5,94.3,22.7"/>
						<g>
							<path class="st4" d="M31.8,74.6c6.3-4,10.5-8.4,11.2-16.8c0.7-8.5,10.5-17.1,17.1-9.9c6.6,7.2,2.6,10.9,0.6,11.7
								c-2.1,0.9-5.8-1.4-3-8c2.8-6.8,4.9-6.4,10.4-11.6c5.7-5.3-1.1-11-6.7-8.6c-5.7,2.4-8.6,1.9-3.4-4.8
								C65.9,16.6,97,1.5,94.3,22.7"/>
							<g>
								<path class="st5" d="M99.1,23.1c-0.1,0.3,0.7,0.3,0.9,0.4C99.9,22.9,98.9,23.1,99.1,23.1z"/>
								<polygon class="st5" points="97.2,18.1 97.6,18.2 96.6,17.6 								"/>
								<path class="st5" d="M95.5,13.4c-1,1.2,1.3,1.5,1,2.6l-0.3,0.2l1.2,0.1C97.1,15.3,95.6,14.3,95.5,13.4z"/>
								<path class="st5" d="M95.5,8.9c-0.2,0.6-1-0.2,0.6,0.7l0-0.2C95.9,9.3,95.7,9.1,95.5,8.9z"/>
								<path class="st5" d="M96,9.4C96.7,9.8,95.9,8.7,96,9.4L96,9.4z"/>
								<path class="st5" d="M93,7.7c0.3,0,0.7-0.1,1.1,0c0-0.5-0.8-0.8-0.4-0.9C92.7,6.6,92.8,7,93,7.7z"/>
								<path class="st5" d="M91.8,8.4l0.5,0C92.3,8.2,92.2,8.1,91.8,8.4z"/>
								<path class="st5" d="M93.4,8.3l-1.1,0.1c0,0.3-0.2,0.7,0.5,0C92.5,8.7,92.9,8.4,93.4,8.3z"/>
								<path class="st5" d="M93.7,8.8c0.3,0.6,0.7,1.1-0.3,1C94.9,10.6,95.4,9.7,93.7,8.8z"/>
								<path class="st5" d="M94.2,14l-0.1,0.6l0.6,0.1C94.4,14.7,94.5,13.8,94.2,14z"/>
								<path class="st5" d="M88,5.7C88,6,88.2,6.5,88.2,6.9l0.6-0.3C88.6,6.4,88,6.1,88,5.7z"/>
								<path class="st5" d="M88.2,6.9l-0.9,0.5C88.1,7.5,88.2,7.2,88.2,6.9z"/>
								<path class="st5" d="M91.1,9.8l1.7-0.5c-0.7,0.1-1.4,0.3-2,0.4L91.1,9.8z"/>
								<polygon class="st5" points="84.9,5.6 85.3,4.8 84.6,6 								"/>
								<path class="st5" d="M83,5.9c0.3-0.6-0.6-0.9-0.3-1.3c-0.6,0.1-0.9,0.7-1.2,1.3C81.8,5.5,82.3,5.5,83,5.9z"/>
								<path class="st5" d="M81,6.6c0.2-0.2,0.3-0.5,0.5-0.8C81.3,6,81.2,6.2,81,6.6z"/>
								<path class="st5" d="M86,7.1c-0.1-0.2-0.2-0.7-0.6-0.8l0.3,0.8L86,7.1z"/>
								<path class="st5" d="M85.8,7.1L85.8,7.1c-0.3,0-0.5,0-0.6,0C85.2,7.1,85.4,7.1,85.8,7.1z"/>
								<path class="st5" d="M86.1,7.1L86.1,7.1C86.1,7.2,86.1,7.2,86.1,7.1z"/>
								<path class="st5" d="M89.3,8.4c-0.5,0.4-1.4,0.9-0.7,1.6C88.9,9.5,88.5,9,89.3,8.4z"/>
								<path class="st5" d="M86.5,8.2l0.8,0.3c0-0.2-0.1-0.6,0.1-0.8L86.5,8.2z"/>
								<polygon class="st5" points="86.1,8.5 86.5,8.2 86.2,8.1 								"/>
								<path class="st5" d="M82.4,7.1c-0.2,0.4-0.6,0.5-0.9,0.7c0.4,0.1,0.8,0.1,1.3,0C82.7,7.5,82.9,7,82.4,7.1z"/>
								<path class="st5" d="M84,7.2L84,7.2C84,7.3,84.1,7.3,84,7.2z"/>
								<polygon class="st5" points="77.9,8.7 78,8.8 78,8.7 								"/>
								<path class="st5" d="M82.8,8c0.3,0.1,0.5-0.1,0.7-0.4c-0.2,0.1-0.5,0.2-0.7,0.2C82.7,7.9,82.7,8,82.8,8z"/>
								<path class="st5" d="M80.1,7.2l0.6,0.3C80.5,7.3,80.1,7,80.1,7.2z"/>
								<path class="st5" d="M83.8,7L83.8,7C83.8,6.8,83.8,6.9,83.8,7z"/>
								<path class="st5" d="M83.8,7c-0.2,0.1-0.3,0.4-0.4,0.6L84,7.2L83.8,7z"/>
								<path class="st5" d="M78.6,14.2c-0.2-0.8,0.2-1.7,1-1.1C80,12.4,79,10,78,8.8c0.1,0.3,0.2,0.6-0.3,1.3
									c0.4,0.3,1.7,0.5,1.4,1.4c-0.7,0.6-0.7-0.1-1.2-0.3c0.6,0.8-0.5,1.7,0.1,3l0.5-0.7C78.5,13.7,78.3,14.1,78.6,14.2z"/>
								<path class="st5" d="M79.2,8.5l0.3-0.2c-0.4-0.1-0.7-0.3-1.2-0.8c-0.3,0.5-0.3,0.8-0.3,1.1c0.4-0.1,0.9-0.2,1.4-0.3
									L79.2,8.5z"/>
								<path class="st5" d="M80.8,8.1c0,0.9-0.6,1.4,0,2.2c0.8-0.2,0.4-0.8,0.8-1.3C80.3,9.5,81.8,8.4,80.8,8.1
									C81,8,81.2,7.9,81.5,7.8l-0.8-0.2l0,0l0,0l0,0c0.1,0.1,0.1,0.2,0,0.1l0,0L80.8,8.1c-0.4-0.1-0.1-0.2,0-0.3l0-0.1l0,0
									l-1.2,0.8C79.8,8.4,80.2,8.3,80.8,8.1z"/>
								<path class="st5" d="M87.6,11.8l0-0.2C87.5,11.7,87.5,11.8,87.6,11.8z"/>
								<path class="st5" d="M87.2,11.3c0.1-0.1,0.2-0.4,0.5-0.3c0.2,0.3,0,0.4-0.1,0.7c0.2-0.2,0.7-0.6,0.2-1l-0.1,0.1
									c-0.5-0.3-1.2-1.5-1.1-1.6C86.7,9.9,86.9,10.5,87.2,11.3z"/>
								<path class="st5" d="M84.1,9.7l-1,0.5l0.6,0.7l-0.1-0.4C84.3,10.6,84.1,10,84.1,9.7z"/>
								<polygon class="st5" points="77.6,8.3 77.5,7.4 77.3,8.8 								"/>
								<polygon class="st5" points="76.3,8.9 76.1,8.1 75.9,8.7 								"/>
								<path class="st5" d="M61.6,55.1l0.2,0.2L61.6,55.1z"/>
								<path class="st5" d="M62.1,53.9l-0.4-0.2C61.9,53.9,62,54,62.1,53.9z"/>
								<path class="st5" d="M54.7,37.4c2.1,1.4,2.3,2.1,2.5,1.3l-0.3-0.9C56.5,38,55.6,37.9,54.7,37.4z"/>
								<polygon class="st5" points="68.7,39.8 68.9,39.9 68.5,39.2 								"/>
								<path class="st5" d="M71,42.6c-0.3,0.1-0.6,0-0.9,0C70.4,42.7,70.6,42.8,71,42.6z"/>
								<path class="st5" d="M58.2,54.7l-0.8-0.3C57.5,54.2,57.8,54.5,58.2,54.7z"/>
								<path class="st5" d="M63.8,15.5c-0.5-0.1-0.9,0-1.1,0.1C63.3,15.8,64.1,16.2,63.8,15.5z"/>
								<path class="st5" d="M52.8,52.4c0.1,0.3,0.2,0.4,0.4,0.4C53.2,52.6,53,52.4,52.8,52.4z"/>
								<path class="st5" d="M61.7,16.3l0.3,0.1c0.2-0.3,0.3-0.5,0.7-0.7C62.2,15.5,61.7,15.6,61.7,16.3z"/>
								<path class="st5" d="M46.6,64.9l-0.1,0.1C46.6,65,46.6,64.9,46.6,64.9z"/>
								<path class="st5" d="M32.4,69.5c0-0.1,0.2-0.2,0.3-0.3C32.6,69.2,32.5,69.3,32.4,69.5z"/>
								<path class="st5" d="M70.9,10.7C71.1,10.5,70.9,10.6,70.9,10.7L70.9,10.7z"/>
								<path class="st5" d="M73.6,13.2c0,0.1,0,0.2,0.1,0.4C73.6,13.5,73.6,13.3,73.6,13.2z"/>
								<path class="st5" d="M62.7,22.3L62.7,22.3C62.9,22.4,62.8,22.4,62.7,22.3z"/>
								<path class="st5" d="M71.5,10.8L71,10.8C71.1,10.8,71.2,10.8,71.5,10.8z"/>
								<path class="st5" d="M71.2,10.5l0.3,0C71.5,10.3,71.4,10.2,71.2,10.5z"/>
								<path class="st5" d="M70.6,10.9c0.1-0.1,0.3-0.1,0.5-0.1c-0.1,0-0.1-0.1-0.1-0.1C70.8,10.7,70.7,10.8,70.6,10.9z"/>
								<path class="st5" d="M53.2,48.1L53.2,48.1C53.1,48.4,53.2,48.3,53.2,48.1z"/>
								<polygon class="st5" points="62.2,27 62.2,27.1 62.3,27.1 								"/>
								<path class="st5" d="M63.7,26.2c-0.6,1.1-0.9,1.1-1.5,0.9c0.3,0.8,0.6,1.6,0.8,2.4C63.2,28.4,63.4,27.3,63.7,26.2z"/>
								<path class="st5" d="M61.6,56.3c-1,0.5-0.3-0.8-0.8-1.7c-0.4,0.3-0.4,1.9-0.9,1.4c-1.5-0.4,0.3-2-0.9-2.2
									c-0.2,0.5-0.5,1.2-0.3,1.6c-0.7-0.8-0.1,0,0,0l-0.4-0.2c0.5,0.2-1.5,0-1,0.3c0.3,0,0.9,0,1.2-0.1c-0.3-0.1-0.6,0-0.9-0.1
									c0.4,0,1.2-0.2,2-0.3C59.5,55,59,55,58.9,54.9c0.3,0,0.6,0,0.9-0.2c-0.5-0.1-1-0.1-1.5-0.2c-0.1,0.1-0.1,0.2-0.1,0.3
									c-0.1-0.1-0.7-0.2-0.3-0.8l0.9-0.3c-0.6,0.7,0.1,0.4,0.7,0.3c-0.4-0.5,0.1-0.2,0.5-0.8c-0.3-0.4-1.3,0-1.8,0.5
									c0-0.6,0-0.9-1-0.8l0.9-0.6L57.5,52l1.3-0.5c-0.2-1.3-1.6,1-1.9-0.3l0.7-0.7c-0.6,0-1.7,1.2-1.1,0.1
									c-0.6,0.3-0.6,1.4-1.1,1.1c0.2-0.4,0.3-0.8,0.3-1.1c-0.3,0.3-0.5,1.1-0.4,1c-0.6,0.1,1-3.2-0.2-2.3c0.1,0.7-0.5,1.8-0.2,1.9
									c-0.2,0.4-0.1-1.4-0.4-0.4l0.2-1.2c-0.1-0.1-0.2,0.4-0.3,0.6l0-1c-0.3,1.7-1-0.7-0.8,1.5c-0.3-1.7-0.3,0.1-0.6-0.4
									c0-1.4,1-0.3,0.8-1.8c-0.3-0.5-0.3,0.4-0.7,0c0.1-0.3,0.2-0.7,0.3-1.1c-1.1-0.7-1.1,1.3-1.3,1.8l0.6-0.7
									c0.4,1.5-0.3,0.4,0,1.6c-0.7-0.7-0.4,0.6-0.9,0.3c0.1,0,0-0.2,0.1-0.2c-0.7,0.4-2.5-1.4-2.9-1.1c-0.5,0.1-0.5,1.4,0.2,1.6
									c0.1,0.5,0.7-1.3,1.6,0.6c-2-1.3-0.2,1.3-2.1,1.2c-0.3-1-1.3-0.5-1.4-1.3c-0.3,0.6,0,0.9,0.4,1.5l-0.7-0.2
									c0.9,1.6,1.1,1,1.3,2.4c-0.3-0.6-1.2-0.1-1.5-0.6c-0.2,0.3-0.1,0.7,0.2,1.1l-0.1-0.1c-0.1,1.2-1.2,0.7-0.7,1.9l0.5,0
									c1,1,0,4.2-0.2,6.4l0.6-0.7c-0.3,0.2,0.3,1.7-0.6,2.2c0-0.2-0.1-0.5,0-0.6c-0.5-0.1-1.3-0.1-1.5,0.4l0.6,0.5l-0.6,0
									c-0.3,0.8,1.1,0.2,0.8,1c-2.1-0.4-1.9,3.2-4,2.7c1,1.4,1-1.2,1.9,0.1c-0.3,0.1-0.7,0-1,0.4l0.9,0.4
									c-1.9,1.8-3.2,1.9-4.6,3.5l-0.1-0.2c-0.8,0.2-1,0.6-0.7,1.5c-0.4-0.2-0.1-0.7-0.6-0.9c0.5,2.7-3.1,0.2-2.7,1.9
									c-1-1.6-3.3-2.3-3.6-3.9l-0.2,0.4c-0.6-1.1,1.2-0.8,0.6-2l1.9,0.2c-0.3-0.3-0.6-1-0.9-1c0.2-0.2,0.4-0.4-0.3-0.7
									c4.7,0.4,4.4-4,6.8-5.9c0-0.2-0.5-0.3-0.8-0.3c1.3-0.1-0.5-0.7-0.5-1l1.9-0.3c-0.4-0.5-1-0.3-1.3-0.4
									c0.1-1.6,1.8-2.3,1.1-4.6c0.7-0.5,1.4,0.4,1.7-0.3c-2,0.6-0.3-2.3-1.7-2c2-0.1,1.4-2.4,3.7-1c0.5-0.6-0.7-1.1-1-1
									c0.5-0.9,0.9-1.5,0.7-2.7c0.6-0.1,2.6-4.2,4.7-3.1c-1.3-0.7-0.4-0.6-0.2-1.4l-1.1-0.6c0.4-0.3,0.8-0.5,1.3-0.8
									c0.2-0.3,0.3-0.3,0.4-0.2c0.3-0.1,0.3,0.6,1,0.5c0.9-0.4,0.7-1,1.1-1.8L49.7,42l0.7-0.4c0.5-0.2-1.4,1.8,0.4,1.7
									c-0.2-0.3,0.5-2.1,1.2-1.4c-0.9,0.2-0.6,0.9-0.2,1.2l1.2-0.2l-0.6-1.4c4.2-0.8,8.2,2.2,10.3,4.8c-1,0.8,1.4,1.7-0.3,2.7
									l0.1-0.2c-0.6-0.4-1,1.1-0.6,1.4c0.1-0.9,2.2-0.2,1.5-1.6l1.5,0.5c3.5-1.2,1.8,3.3,3,5.6c-0.1-0.2-0.4-0.2-0.5-0.2
									c1.5,2.7-2,5.3-1.8,5.7l-0.9-0.4c-0.1,2.3-0.2,2.9-3,3.5c0-0.2,0.3-0.5-0.3-0.6c-0.5,0.9-1.6,2.1-4,1l0.2-0.3
									c-1.2-0.4-2.2-1.1-2.9-2c2.1-1.2-3.7-4.3-0.2-5.4c-0.8-0.4-1-2.1-1.2-2.8c0.1,0,0.3,0,0.4,0c-1.3-1.2,1.1-2,1.3-2.7
									c-0.2-0.6-0.7-0.6-1.3-0.6c1.6-0.4-0.2-3.2,0.6-3.3c0.5-0.7,1.2,0.3,1.9,0.5c0.4-1.2-2.5-1.3-0.6-2c0,0.2-0.1,0.6,0.1,0.6
									c0.6-0.5,4.1,0.9,3.8,0l-0.6-0.1c0.2-1.4,3.4,0.1,2.1-1.5l-0.7-0.7c2.1-0.1,0.4-0.8,2.3-0.9l0.1,0.1
									c0.4-0.6,1.5,0.2,0.7-1.3l-0.3,0c0.5-0.6,0.7-0.6,1.4-1c0-0.2,0.1-0.6,0.4-0.4c-0.8-1,1.1-1.7,1.3-1.8
									c-0.2,0.5,0.3,0.7,0.8,1c-0.5-1-0.5-1.1,0.3-1c-1.2-1-2.5-2.2-2.5-2.3c0.2,0.1,0.3,0.2,0.6,0.4c0.3,0.1,0.1-0.1-0.1-0.1
									c0.3,0.1,0.5,0.3,1,0.5c-1.3-0.8-0.1-0.2,0-0.3c-0.2,0,0.2,0,0.8,0c-1.8,0.3,1.5-0.6-0.8,0c1.3-0.9-1-1.2-1.1-2.5
									c0-0.6-0.6,0.3-0.8,0.4l0.1-0.8c-0.6,1.4-0.6,0.5-0.9,2c0-0.9-0.1-1.4-0.6-2c0,0.6,0,1.2,0.1,1.7L62.4,34
									c-0.2,0.6-0.6,0.5-1.1,0.5c0.2-0.1,0-0.1,0-0.3c0.5,1.7-1.2,2.1-1.4,2.9c-0.9-1.5-1.1,0.8-1.9-0.7c-0.2,0.3-0.4,0.5-0.7,0.6
									c0.3,0.7,0.6,1.5-0.1,1.2l-0.2,0l-0.3-1c-0.4,0.4-2.4-0.1-3.1-0.5c0.3,0.3,0.7,0.6,1.2,1c-0.6-0.3-1-0.8-1.4-1.1
									c-0.2-0.1-0.3-0.2-0.4-0.3l0.3,0.1c-0.5-0.6-1.3-1.7-2.1-3.2c1-4-0.4-6.4,2-7c-0.3,0.1-0.6,0.3-0.3,0.5
									c0.7-1.1,2.5-1.3,2.4-2.4L54.5,24c0.3-1,0.6-1.8,1.2-2.3L55,20.9c1.1-0.6,1.8-3.4,3.6-2.2c-0.3-0.8,1.3-0.7,1.6-1.3l0.6,0.5
									c0.8-0.3,1-0.8,1.2-1.2c2.2,0.5,2.4-1.7,3.7-2.2l0.1,0.2l0.9-1.2c0,0.8,0-0.6,0.4-0.6c0.2-0.6,0.9-0.7,1.6-0.5l0.8-0.4
									c-0.6,0.9,0.6,1,1,1.7l0.2-0.9c0.4,0.3,0,0.8,0.4,0.8c0.1-0.6,1.1-1.1,1-2c-0.1-0.2-0.4-0.3-0.6-0.4c0,0.1,0,0.1,0,0l-0.1,0
									l0.1,0l0-0.4c0.7-0.1,0.3-0.3,0.1-0.7c1.3,1,1.3-0.1,2.5,1.2c-1.5-1.4,1.6-0.7,0.5-2.2c1.1,1.1,0.4-0.1,1.2,0.9
									c-0.9-0.1-1.2,1.5-1.5,2.3l0.9,0.5c0.2,1.6-1.5,0-1.6,0.6c0.1-0.4,0.7-0.3,0.9,0l-0.6-1.1c-1-0.1-1.3,1-1.6,1.9
									c0.7,0.1-0.3,1,0.4,1.6l0.3-0.3c0.4,0.3,0.1,0.8,0.1,1.3c-1.7-0.2-3.6,1.7-4.5,1.2c0.4,0.1,0.7-0.4,0.8-0.8l-0.8-0.1
									c0.5-0.3,1.4,0.4,1.9-0.3C70,16.3,70,15,69,14.4c-2-0.3-0.2,2.4-1.9,3.1c0,0.3-0.3-1.3-1-0.4c-0.7,1.4-0.4,3.4,0.5,4.7
									c0.1-0.7,0.4-2.1,1.2-1.1c-0.2,0.7-0.7,1.4-0.3,2.1c-1.2-0.9,0.5-0.9-0.7-1.5c-0.3,0.2-0.1,0.7-0.1,1
									c-0.1-0.6-0.8-0.6-1.1-0.8c-1,0.6-1.8,0.6-2.9,1.2c-0.2-0.1-0.6-0.4-0.8-0.7c-0.3,0.7,0.5,2.9,1.2,3.4
									c-0.5,0.5-0.9,0-1.1,0.7c1.5,0.3-0.3,0,0.6,1c-0.3,0.5-0.6-0.3-1-0.4c0,0.2,0.2,0.6,0.5,0.9c-1-0.5-1.4-2.4-2.6-2.9
									c-0.7-0.3-2.7-0.1-2.9-0.1c0.6,1,4.4,3.9,5.8,4.7c0.6,0.5-1-0.2-1.2-0.1c-1.5-0.3,0.2,1.4-0.5,1.6L60.4,30
									c-0.3-0.1-0.5,0.8-0.2,1.2c-0.4-0.2-1.7-1.6-2.3-1.7c-0.9,0.9,1.1,2.7,2.3,3.1c-0.2-0.5-0.6-1-0.7-1.6
									c0.9,0.6,0.6,1.3,1.8,1.8C61,33.2,61,33,61,32.1c0,0.3-0.5,0.7-1,0.3c0.2-0.4-0.1-0.3-0.7-0.5c-1.6,0.9-4.3-2.6-5.3-4.1
									l0.1,1.3l-0.7,0c-0.3,2,4.9,4.4,5.1,1.4c-1.4-0.9-1.8,1.8-2.5,2c1.1,0.4,0.9-3.3,1.5-3c-0.1-0.1-0.3-0.3-0.4-0.4
									c0.1-0.2,1,0,0.8-0.4c0.3,0.6,1,1.9,0.9,2.4c0.1-0.8,0.2-1.7,0.2-2.5c-0.1,0.3,0.7,2,0.7,2.4c0.4-0.1-0.1-2.3-0.5-2.5
									c1.3,1,0.7,0.4,2.2,1.6c0.3-0.2-0.7-1.9-1.1-2c0.7-0.8,1.4-0.7,1.9-0.6c-1.3,1.1,0.7,4.3,0.7,5.7c0-2,0.7-4,1.9-5.9
									c-0.1,0.3-0.4,2.2-0.4,2.4c0.1-1.9,4-1.5,5.3-0.1l-0.2-0.1c-0.6,0.3,0.3,1.4,1.2,1.4c-0.3,0.2-0.3,0-0.5-0.1
									c-0.1,1.6,3.1-0.7,2.7,1.5c-0.6-1.2-1.3-0.9-1.8-0.4c1.2,0.2,1.5,2.7,3.1,1.6c-0.2,0.9,0.2,1.5-0.8,1.6
									c0.5,0.8,1,1.8,1.1,2.8c-0.2-0.3-0.7-0.5-1,0.2c0.6-1.6-1.4-2.8-0.3-3.7c-1.2,0.3-1.8,0.8-2.9,0.6c1,1.3,2.7,3.1,3.2,5.5
									c-0.7,0.5-1.3,1-2,1.3l0.4,0.4l-1.3-0.7c0.1,0.4,0.2,0.7,0.1,0.6c-0.1-0.1-0.2-0.2-0.3-0.4c-0.1,0.2-0.1,0.4-0.1,0.6
									c-0.6-0.5-0.9-1.3-1.3-2.1l0.9,0.2c-0.3-0.7-0.8-1.3-1.4-1.3l0.1,0.3c-0.3-0.5-0.6-0.8-0.8-0.9l-0.1,1.2
									c0.2,0.1,0.6,0.2,1.1,0.4c0.2,1.2,0.3,2.5,1.4,2.8l-1.2,0c0.2,1.7,0.1,1.4-0.2,3c-0.4-0.3-0.4-0.9-0.8-1
									c0.3,1.8-2.9-0.1-2.1,1.1c-0.3,0.7,0.5,1.1,0.4,1.7c-0.1-0.1-0.2-0.4-0.4-0.4l0.3,1.1c-0.4-0.2-0.1-0.8-0.8-0.8
									c-0.2,1.2-0.1,1.8-0.9,1.8c-0.4,0.7,1.7,1.2,1.1,1.4c-0.7-0.5-1.5-1.1-1.8-0.8c0.3,0.5,0.9,0.8,1,1.3l-1.1-0.7
									c-0.1,0.4-0.1,0.7-0.9,0.2c0.3,0.6,0.1,0.7-0.1,0.7c0.3,0.9,2.5,0.8,3,1c-1.1-0.1-0.8,0.6-2.3,0.2l-0.1-0.7
									c-1.9,0.5,1.2,1.8-1.6,1.2c0.3-0.3-0.1-1.1-0.9-1.2l0.3,0.9c-0.3-0.1-0.1-0.4-0.5-0.3c0.2,0.3,0.7,0.8,1.1,1.1l-0.1,0
									L61.6,55c0.1-0.1-0.3-0.3-0.4-0.2c0.1,0.3,0.3,0.5,0.5,0.7c-0.3-0.2-0.7-0.1-0.9,0.1c-0.5,0.6,2.8,0.7,1.5,0.7
									c0,0-0.1,0-0.1,0l-0.6,0.1c2.7-0.2,0.2-0.5,1.7-2.6c-1.5,0.3-0.2,0.5-1,1.9c-0.3,0-0.6,0-0.9,0.1
									C61.5,56,61.7,56.1,61.6,56.3z M62.6,52.1c0.6,0.1,0.1-0.4,0-0.7C62.3,51.6,61.7,51.5,62.6,52.1z M70.6,40.2
									c0.5,0,0.8-0.2,0.6-0.6C70.8,39.8,70.6,40,70.6,40.2z M68.4,12.9L68.4,12.9C68,12.8,67.8,12.8,68.4,12.9z M68.9,12.8
									c0.3-0.1,0.4-0.2,0.4-0.4c0.1,0.1,0.2,0.2,0.1,0.4C69.3,13.1,69.1,13,68.9,12.8z M48.3,43.4L48,43.3
									C48,43.6,48,43.9,48.3,43.4z"/>
								<path class="st5" d="M70.7,42.3c-0.2-0.1-0.3-0.2-0.4-0.3C70.3,42.2,70.4,42.3,70.7,42.3z"/>
								<polygon class="st5" points="58.3,54.8 58.4,54.8 58.2,54.7 								"/>
								<path class="st5" d="M62.7,27.4c-0.2,0-0.4,0-0.6-0.1C62.3,27.4,62.5,27.5,62.7,27.4z"/>
								<path class="st5" d="M73.6,9l-0.5,0.5c0.3-0.2,0.5,0,0.7,0.1C73.6,9.4,73.4,9.1,73.6,9z"/>
								<path class="st5" d="M80.6,12.9c0.1-0.1,0.2-0.1,0.2-0.2l-0.1-0.4C80.3,12.4,80.2,12.8,80.6,12.9z"/>
								<path class="st5" d="M75.3,11.8c0.3,0.7,0.6,0.3,0.9,0l-0.1,0C75.9,10.7,75.6,11.3,75.3,11.8z"/>
								<path class="st5" d="M76.3,11.8c0.1-0.1,0.2-0.1,0.4-0.1C76.6,11.2,76.5,11.6,76.3,11.8z"/>
								<path class="st5" d="M70.3,11.7c0.3,0.1-0.3-1-0.1-0.7C70,9.9,69.5,12.7,70.3,11.7z"/>
								<polygon class="st5" points="76.6,14.2 76.1,13.3 76.2,14.1 								"/>
								<path class="st5" d="M73.3,14.4l0.7,0c-0.1-0.2,0-0.3,0-0.4C73.7,14.2,73.2,14.2,73.3,14.4z"/>
								<path class="st5" d="M74.1,14.4c0.2-0.1,0.4-0.2,0.4-0.4C74.4,14.1,74.2,14.2,74.1,14.4z"/>
								<polygon class="st5" points="75.9,14.4 75.6,14.3 75.2,14.4 								"/>
								<path class="st5" d="M67,18l-0.4,0.6c0.1,0.3,0.4,0.4,0.5,0.1C67.1,18.4,67.2,18.2,67,18z"/>
								<path class="st5" d="M70.2,19.3c-0.3-0.1-0.4-0.3-0.6-0.5l0.6,1.1L70.2,19.3z"/>
								<path class="st5" d="M68.6,20.5c0.1,0.3-0.3,1.4,0.4,0.8C68.9,21,69.3,20.4,68.6,20.5z"/>
								<polygon class="st5" points="59.6,25.8 59.7,25.6 58.2,24.3 								"/>
								<path class="st5" d="M56.9,27.3c0.7-0.3,0,1,1.4,1.1c0.1,0.5-1.4-0.1-1.1,0.5C56.5,28.3,57.1,28.6,56.9,27.3z"/>
								<path class="st5" d="M57.2,28.9c0.1,0.1,0.2,0.2,0.3,0.4C57.4,29.1,57.3,29,57.2,28.9z"/>
								<polygon class="st5" points="30,69.7 29.4,69.6 30,70 								"/>
								<path class="st5" d="M30.4,71.5l-0.8-1l0.4,1.2C30,71.5,30.2,71.3,30.4,71.5z"/>
								<path class="st5" d="M65.4,51.9l-0.3-0.2c-0.3-0.1-0.4-0.1-0.5,0L65.4,51.9z"/>
								<polygon class="st5" points="62.9,55.6 62.9,55.6 61.7,55.5 								"/>
								<path class="st5" d="M60.4,52.3c0.5,0,1,0.5,1.4,0.5C60.9,52.3,60.1,53.7,60.4,52.3z"/>
							</g>
						</g>
					</g>
					<path class="st9" d="M51.4,74.6C58.5,70.1,63,65.1,63,55s11-20,18.5-10.5s2,14.5-1,16c-3,1.5-8-1-5-9c3-8,5-7,11.5-13
						c6.5-6-2.5-12.5-10-9s-11.6,3.4-5.5-4.5c8.5-11,46.1-28,41.1,0.5"/>
					<path class="st10" d="M46.4,74.6c7.1-4.5,11.8-9.5,12.1-19.5C58.7,45,70,35,77.3,44.5c7.2,9.5,1.6,14.5-1.5,16
						c-3,1.5-8-1-4.8-9c3.2-8,5.2-7,11.9-13c6.7-6-2.1-12.5-9.8-9c-7.6,3.5-11.7,3.4-5.4-4.5c8.8-11,46.9-28,41,0.5"/>
				</g>
			</g>
		</g>
		<g>
			<path d="M42.2,14c-5.2,5.2-7,20-8.6,34.2c-0.5,4.4-1,8.6-1.6,12.4l0.4,0.8c0.6-3.9,1.7-8.7,2.2-13.2c1.7-14.1,3.4-28.6,8.4-33.6
				c9.3-9.3,26.5-6.1,35.7,3.1l0.1-0.1C69,8,52,4.2,42.2,14z"/>
		</g>
	</g>
</g>
</svg>
